<?xml version="1.0" standalone="no"?>
<!DOCTYPE svg PUBLIC "-//W3C//DTD SVG 1.1//EN" "http://www.w3.org/Graphics/SVG/1.1/DTD/svg11.dtd" >
<svg xmlns="http://www.w3.org/2000/svg">
<metadata></metadata>
<defs>
<font id="cleargothic-regularregular" horiz-adv-x="1073" >
<font-face units-per-em="2048" ascent="1638" descent="-410" />
<missing-glyph horiz-adv-x="593" />
<glyph horiz-adv-x="2048" />
<glyph horiz-adv-x="2048" />
<glyph unicode="&#xd;" horiz-adv-x="2048" />
<glyph unicode=" " horiz-adv-x="593" d="M0 0z" />
<glyph unicode="!" horiz-adv-x="413" d="M90 102q0 60 35 88.5t108 28.5q54 0 87.5 -29.5t33.5 -78.5q0 -127 -131 -127q-133 0 -133 118zM102 1477h246l-57 -1069h-135z" />
<glyph unicode="&#x22;" horiz-adv-x="616" d="M-2 1001q44 107 59 172.5t15 153.5q0 60 -17 150h226q-32 -159 -68 -258q-39 -102 -104 -218h-111zM272 1001q44 110 59 175t15 151q0 65 -16 150h225q-32 -159 -68 -258q-39 -102 -104 -218h-111z" />
<glyph unicode="#" horiz-adv-x="1198" d="M96 459l23 102h235l74 352h-235l20 103h238l90 430h102l-92 -430h215l90 430h100l-90 -430h236l-21 -103h-235l-76 -352h236l-21 -102h-235l-93 -430h-100l90 430h-213l-92 -430h-100l90 430h-236zM455 561h215l73 352h-213z" />
<glyph unicode="$" horiz-adv-x="1007" d="M72 80v192q23 -23 53 -47q67 -53 156 -92q66 -27 184 -27l2 558l-76 38q-109 59 -139 80q-87 56 -132.5 137.5t-45.5 174.5q0 106 60.5 198t164.5 144q73 32 168 41v157h90v-149h18q75 0 152 -15q33 -7 139 -47v-192q-30 27 -65 51q-64 43 -111 61q-46 22 -135 25l2 -498 l72 -39q83 -42 137 -75q89 -60 135.5 -146.5t46.5 -189.5q0 -122 -61.5 -222.5t-171.5 -158.5q-38 -20 -71.5 -30t-94.5 -19v-183h-88v177q-101 0 -176 16q-77 21 -205 76zM295 1130q0 -68 41.5 -118.5t130.5 -91.5v436q-77 -27 -113 -66q-26 -27 -42.5 -72.5t-16.5 -87.5z M551 127q84 22 137 89.5t53 154.5q0 77 -51.5 143.5t-138.5 101.5v-489z" />
<glyph unicode="%" horiz-adv-x="1619" d="M29 1098q0 171 98.5 278t255.5 107q155 0 256.5 -110t101.5 -277q0 -168 -101.5 -278.5t-256.5 -110.5q-101 0 -186 53t-125 141q-43 94 -43 197zM209 1096q0 -129 48.5 -208t127.5 -79q57 0 100 44t60 120q12 59 12 119q0 135 -47 213.5t-129 78.5q-76 0 -124 -80 t-48 -208zM420 0l663 1477h117l-661 -1477h-119zM883 383q0 169 99.5 277t254.5 108t256.5 -110t101.5 -277q0 -168 -101.5 -278.5t-256.5 -110.5q-101 0 -186 52.5t-125 139.5q-43 94 -43 199zM1063 381q0 -130 48.5 -210.5t125.5 -80.5q58 0 101.5 45t60.5 121 q14 57 14 121q0 134 -48 212.5t-130 78.5q-75 0 -123.5 -80t-48.5 -207z" />
<glyph unicode="&#x26;" horiz-adv-x="1277" d="M72 436q0 116 47.5 205.5t150.5 165.5q42 30 79 47.5t106 40.5q-71 146 -111 235q-26 57 -98 226v114h749v-159q-79 23 -126 29t-164 6h-216q112 -260 216 -461q113 -226 253 -463q64 126 101 225q29 80 65 227l113 -38q-40 -164 -78 -263q-42 -110 -127 -264 q104 -152 152 -215q12 -16 35 -43.5t41 -50.5h-283l-98 143q-161 -161 -363 -161q-189 0 -316.5 131t-127.5 323zM279 473q0 -137 86.5 -235.5t209.5 -98.5q118 0 238 105q-42 72 -89.5 154.5t-68.5 119.5q-17 30 -143 262q-233 -100 -233 -307z" />
<glyph unicode="'" horiz-adv-x="339" d="M-2 1001q44 107 59 172.5t15 153.5q0 60 -17 150h226q-32 -159 -68 -258q-39 -102 -104 -218h-111z" />
<glyph unicode="(" horiz-adv-x="561" d="M70 741q0 381 114.5 591.5t337.5 236.5v-142q-66 -13 -100 -38q-89 -70 -107 -189q-17 -87 -30 -269.5t-13 -318.5q0 -278 35 -427t115 -220q23 -21 100 -39v-141q-66 11 -99.5 21.5t-74.5 35.5q-143 85 -210.5 303t-67.5 596z" />
<glyph unicode=")" horiz-adv-x="557" d="M37 -76q68 19 98 45q93 77 111 197q15 88 27 264t12 307q0 279 -33.5 425t-116.5 222q-31 27 -98 43v140q65 -9 101 -21t77 -37q68 -45 117 -106t71 -129q33 -116 59.5 -315.5t26.5 -348.5q0 -295 -66.5 -481.5t-207.5 -286.5q-57 -39 -178 -57v139z" />
<glyph unicode="*" horiz-adv-x="743" d="M61 1071l246 105l-244 100l68 108l205 -155l-31 248h133l-32 -248l206 155l68 -108l-244 -100l246 -105l-64 -113l-215 150l35 -260h-133l35 260l-213 -150z" />
<glyph unicode="+" d="M86 678v153h373v386h157v-381h369v-158h-369v-369h-155v369h-375z" />
<glyph unicode="," horiz-adv-x="339" d="M-2 -254q44 106 59 171t15 153q0 58 -17 145h226q-31 -156 -68 -258q-37 -93 -104 -211h-111z" />
<glyph unicode="-" horiz-adv-x="595" d="M49 469v174h500v-174h-500z" />
<glyph unicode="." horiz-adv-x="358" d="M37 102q0 117 139 117q57 0 90 -29t33 -79q0 -65 -32 -96t-99 -31q-131 0 -131 118z" />
<glyph unicode="/" horiz-adv-x="694" d="M2 0l582 1477h108l-586 -1477h-104z" />
<glyph unicode="0" d="M82 731q0 224 57.5 397t162.5 268t241 95q130 0 232.5 -96.5t159 -269.5t56.5 -394t-57.5 -390.5t-162 -263t-241.5 -93.5q-129 0 -231.5 95.5t-159.5 266t-57 385.5zM311 733q0 -301 59.5 -467t166.5 -166t166 164.5t59 468.5q0 306 -59 473.5t-166 167.5t-166.5 -167.5 t-59.5 -473.5z" />
<glyph unicode="1" d="M170 1174v153l377 150h115v-1379q98 0 151 4q21 0 117 7v-109h-758v111q113 -11 213 -11h51v1213q-116 -43 -186 -84q-5 -3 -80 -55z" />
<glyph unicode="2" d="M109 0v176q110 110 198 211q130 150 262 350q78 124 114 219.5t36 182.5q0 101 -60 162t-159 61q-169 0 -316 -184l-28 202q114 62 207 88.5t194 26.5q179 0 285 -97t106 -261q0 -100 -49 -207t-154 -240q-135 -166 -296 -332q-100 -103 -195 -192l489 2q108 3 142 12 q26 5 67 21v-201h-843z" />
<glyph unicode="3" d="M109 59v217q43 -47 67 -65q50 -42 122.5 -69t137.5 -27q131 0 216 87t85 220q0 135 -85 214t-232 79q-55 0 -101 -10v139q49 -8 91 -8q135 0 212.5 73.5t77.5 202.5q0 116 -71 185t-191 69q-77 0 -147 -27q-67 -25 -146 -84v183q179 57 328 57q203 0 328 -101.5 t125 -265.5q0 -129 -81.5 -218.5t-238.5 -133.5q169 -15 264 -110.5t95 -249.5q0 -191 -141.5 -311.5t-366.5 -120.5q-96 0 -172.5 16.5t-175.5 58.5z" />
<glyph unicode="4" d="M74 338v160q168 283 250 452q65 130 109 234t114 293h215l-547 -992h367v578l217 313v-889h41q50 0 100 9v-170q-43 12 -90 12h-51v-29v-16q0 -150 14 -293h-248q13 158 17 309v29h-508z" />
<glyph unicode="5" d="M133 45v201q41 -41 68 -62q50 -39 115 -61.5t128 -22.5q133 0 215 106.5t82 278.5q0 137 -65.5 221.5t-175.5 84.5q-66 0 -118.5 -23.5t-109.5 -77.5l-106 39l18 748h592q58 0 98 16v-199h-573v-454q150 82 283 82q164 0 275.5 -125.5t111.5 -311.5q0 -219 -151 -358 t-388 -139q-80 0 -174 16q-85 25 -125 41z" />
<glyph unicode="6" d="M109 578q0 290 112 538q82 184 216 280.5t306 96.5q71 0 131 -14v-164q-78 57 -165 57q-91 0 -152 -55q-99 -92 -154 -236q-27 -66 -38 -121t-17 -153q64 70 130 101.5t149 31.5q147 0 241.5 -125t94.5 -321q0 -224 -117.5 -365t-302.5 -141q-200 0 -317 159.5 t-117 430.5zM338 590q0 -233 54.5 -360.5t154.5 -127.5q90 0 141 104.5t51 289.5q0 154 -46.5 234.5t-135.5 80.5q-126 0 -217 -143q-2 -33 -2 -78z" />
<glyph unicode="7" d="M115 1266v211h813v-129l-45 -129l-138 -410q-125 -374 -198 -651q-23 -102 -33 -158h-276q59 101 122 225q86 187 246 627l166 448h-352q-99 0 -199 -14q-43 -5 -106 -20z" />
<glyph unicode="8" d="M94 383q0 121 73.5 217.5t213.5 161.5q-117 79 -172 166t-55 190q0 157 114.5 266t280.5 109q155 0 256.5 -92.5t101.5 -233.5q0 -107 -62.5 -192.5t-178.5 -134.5q168 -98 239.5 -197.5t71.5 -232.5q0 -186 -128 -306t-327 -120q-184 0 -306 113.5t-122 285.5zM254 401 q0 -132 83 -219.5t208 -87.5q106 0 174.5 73.5t68.5 188.5q0 93 -46.5 154.5t-172.5 136.5q-113 64 -116 66q-105 -72 -152 -145.5t-47 -166.5zM346 1176q0 -83 54 -149t180 -138q188 99 188 274q0 103 -58 164.5t-153 61.5q-92 0 -151.5 -59.5t-59.5 -153.5z" />
<glyph unicode="9" d="M104 981q0 221 119.5 366.5t300.5 145.5q198 0 316 -174t118 -465q0 -252 -80 -450.5t-224.5 -309t-329.5 -110.5q-51 0 -131 14v162q77 -56 163 -56q90 0 156 56q91 85 147 227q27 71 39 127t19 152q-63 -69 -126.5 -99t-146.5 -30q-155 0 -247.5 120.5t-92.5 323.5z M324 977q0 -311 184 -311q130 0 217 141q2 37 2 78q0 230 -55 359.5t-152 129.5q-92 0 -144 -105t-52 -292z" />
<glyph unicode=":" horiz-adv-x="382" d="M61 102q0 117 142 117q56 0 89.5 -29.5t33.5 -78.5q0 -127 -133 -127q-132 0 -132 118zM61 750q0 61 34.5 89.5t107.5 28.5q56 0 89.5 -29.5t33.5 -78.5q0 -64 -32.5 -94.5t-100.5 -30.5q-132 0 -132 115z" />
<glyph unicode=";" horiz-adv-x="389" d="M29 -254q44 105 58.5 170t14.5 154q0 63 -16 145h225q-27 -147 -67 -258q-34 -88 -105 -211h-110zM70 750q0 62 34 90t107 28q54 0 87.5 -29.5t33.5 -78.5q0 -65 -32 -95t-101 -30q-129 0 -129 115z" />
<glyph unicode="&#x3c;" horiz-adv-x="481" d="M59 496v84q47 64 88 131q70 107 129 215h146l-205 -383l201 -387h-146q-71 131 -127 215q-70 104 -86 125z" />
<glyph unicode="=" d="M92 553v156h889v-156h-889zM92 838v155h889v-155h-889z" />
<glyph unicode="&#x3e;" horiz-adv-x="481" d="M59 156l205 387l-205 383h144q55 -103 125 -211q15 -25 43.5 -65.5t48.5 -71.5v-80q-23 -33 -49.5 -71t-36.5 -52q-63 -100 -131 -219h-144z" />
<glyph unicode="?" horiz-adv-x="839" d="M-4 1368q94 66 182 95.5t195 29.5q195 0 318.5 -109t123.5 -282q0 -157 -104.5 -260.5t-282.5 -120.5v-313h-139v466q10 0 26 -1t21 -1q114 0 185 70t71 182q0 106 -73.5 178t-182.5 72q-162 0 -225 -151zM225 102q0 117 140 117q57 0 89.5 -29t32.5 -79q0 -65 -32 -96 t-99 -31q-131 0 -131 118z" />
<glyph unicode="@" horiz-adv-x="1593" d="M119 788q15 234 145 412q94 128 226 206t278 95q168 19 313 -32.5t241 -153.5t139 -253t14 -323q-32 -190 -127.5 -307t-208.5 -133q-93 -13 -155 39.5t-54 132.5q-9 -33 -41 -74q-112 -130 -268 -61q-79 35 -122 128t-36 236q4 48 8 72q30 196 137 318q67 80 148 106.5 t148.5 -0.5t103.5 -96q2 -3 5 -10.5t5 -10.5l18 117l101 -2l-78 -440l-29 -179q-11 -76 4 -126q11 -37 44.5 -54t70.5 -4q28 9 53 29t64 65q81 98 106 275q22 152 -15.5 282t-119.5 215t-205 124t-264 18q-119 -17 -221.5 -82t-174 -162.5t-107 -228t-21.5 -271.5 q7 -64 20 -114q40 -157 137 -271t222 -165t272 -38.5t283 95.5q45 26 100 74q67 57 111 116l41 -73q-32 -40 -52 -60q-233 -245 -544 -248q-208 0 -377 105.5t-261 294t-77 417.5zM582 596q3 -75 26 -127q28 -62 94.5 -73t116.5 38q30 28 49.5 63.5t46.5 112.5q21 64 37 154 l4 20l15 86q8 71 2 121q-12 74 -69.5 108t-119.5 7q-54 -23 -91.5 -73t-71.5 -154q-16 -49 -27 -101q-15 -103 -12 -182z" />
<glyph unicode="A" horiz-adv-x="1226" d="M-10 0q76 177 123 309l383 1096l-9 72h226l401 -1168q37 -101 121 -309h-281q-49 206 -86 311l-53 154h-508l-57 -156q-26 -72 -37 -116q-32 -114 -49 -193h-174zM348 586h428l-211 641z" />
<glyph unicode="B" horiz-adv-x="1202" d="M133 0q12 159 12 309v856q0 117 -10 277l-2 35h502q94 0 172 -19q126 -28 202 -119t76 -213q0 -135 -92 -225t-256 -113q199 -23 303.5 -120t104.5 -258q0 -130 -78.5 -235t-208.5 -146q-89 -29 -207 -29h-518zM365 121h231q80 0 145 20q78 29 125 105t47 174 q0 299 -362 299h-186v-598zM365 842h155q344 0 344 268q0 89 -45 151t-125 82q-55 17 -145 17l-184 -2v-516z" />
<glyph unicode="C" horiz-adv-x="1181" d="M70 727q0 224 89.5 398.5t251.5 271t371 96.5q88 0 158 -14.5t156 -51.5v-229q-137 174 -326 174q-150 0 -260 -90q-103 -80 -153 -212t-50 -329q0 -290 124 -462.5t333 -172.5q168 0 340 156l74 -90q-40 -36 -84 -66q-177 -124 -381 -124q-139 0 -259 55.5t-204 153.5 t-132 236.5t-48 299.5z" />
<glyph unicode="D" horiz-adv-x="1261" d="M133 0q0 11 1 22l1 11l2 41q6 80 6 119v26l9 90l-7 856v119q-4 100 -8 158l-2 35l402 -2q321 0 488 -188t167 -550q0 -235 -84 -409.5t-238 -264.5q-114 -63 -309 -63h-428zM367 127h211q199 0 292 155t93 486q0 411 -220 543q-68 43 -217 43h-159v-1227z" />
<glyph unicode="E" horiz-adv-x="1046" d="M133 0q12 170 12 309v856q0 157 -10 277l-2 35h838v-140l-45 4q-236 13 -293 13h-266v-535h204q88 0 277 17v-156q-188 20 -279 20h-202v-569h327q130 0 187 4q8 0 46 2t74 4v-141h-868z" />
<glyph unicode="F" horiz-adv-x="950" d="M133 0q10 182 10 311v854q0 141 -8 277l-2 35h830v-138l-35 2q-280 13 -289 13h-274v-539h210q109 0 273 21v-158q-205 20 -273 20h-210v-387q0 -167 8 -274l2 -37h-242z" />
<glyph unicode="G" horiz-adv-x="1337" d="M70 707q0 228 91.5 407t256.5 279t375 100q97 0 176 -17.5t180 -60.5v-235q-39 56 -49 67q-58 60 -144 94.5t-174 34.5q-160 0 -281 -98t-161 -260q-33 -161 -33 -307q0 -297 115.5 -457t333.5 -160q74 0 123 17.5t102 62.5v275q0 158 -16 311h247l-4 -39q0 -5 -1 -16 t-1 -17q-3 -39 -6 -121q-2 -43 -2 -96v-80q0 -39 2 -74q8 -116 8 -120q3 -39 9 -70q-67 -43 -87 -51q-181 -96 -387 -96q-202 0 -355 90t-235.5 255t-82.5 382z" />
<glyph unicode="H" horiz-adv-x="1327" d="M133 0q12 170 12 309v858q0 102 -12 310h248q-14 -172 -14 -312v-329h591v329q0 147 -10 279l-2 33h248q-14 -146 -14 -310v-858q0 -177 14 -309h-248l2 37q10 137 10 272v396h-591v-396q0 -63 4 -116q5 -97 10 -193h-248z" />
<glyph unicode="I" horiz-adv-x="512" d="M133 1477h244v-31q-1 -3 -1.5 -10t-1 -17t-1.5 -18q-1 -25 -3.5 -65t-2.5 -54v-119v-852q0 -69 10 -274l2 -37h-244q2 35 2 74q4 54 4 119q2 35 2 79v39v854q0 75 -8 275z" />
<glyph unicode="J" horiz-adv-x="598" d="M-20 31v190q63 -84 145 -84q37 0 64.5 23t33.5 61q6 30 6 84v860q0 5 -4 119q-1 25 -2 54t-1.5 44t-0.5 21l-4 74h248l-2 -35q-10 -143 -10 -275v-899q0 -141 -66.5 -214.5t-193.5 -73.5q-94 0 -213 51z" />
<glyph unicode="K" horiz-adv-x="1206" d="M133 0q14 158 14 309v858q0 125 -14 310h254l-4 -37q-10 -140 -10 -273v-370l293 370q68 83 106 138q33 40 76 100l51 72h201q-114 -124 -172 -191l-45 -53l-56 -66l-145 -186l362 -672l72 -116l76 -119q5 -12 18 -35q12 -12 27 -39h-291l-10 20q-15 36 -23 54 q-42 91 -57 119q-11 26 -61 116l-265 471l-157 -196v-275q0 -83 2 -116q0 -70 8 -160l2 -33h-252z" />
<glyph unicode="L" horiz-adv-x="944" d="M133 0q1 12 2 36.5t2 37.5q0 9 4 119q4 106 4 116v856q0 137 -12 312h248l-2 -39l-2 -35l-6 -119l-6 -117v-1038h297q128 0 301 12v-141h-830z" />
<glyph unicode="M" horiz-adv-x="1703" d="M82 0l4 35q20 146 27 276l51 854q6 89 6 199q0 51 -2 78v35h248l442 -1035l430 1035h248v-37v-35q0 -100 4 -240l51 -854q3 -56 13 -118l12 -138l6 -55h-248v35v51q0 126 -6 225l-53 908l-443 -1057h-129l-450 1044l-51 -895q-6 -114 -6 -260q0 -26 2 -51h-156z" />
<glyph unicode="N" horiz-adv-x="1314" d="M133 0q10 182 10 311v854q0 155 -8 275l-2 37h199l708 -1139v829q0 147 -12 310h154q-1 -13 -1.5 -27.5t-1 -24.5t-1.5 -20q-9 -185 -9 -238v-856q0 -60 9 -276l4 -35h-181l-729 1171v-862q0 -111 11 -272l2 -37h-152z" />
<glyph unicode="O" horiz-adv-x="1323" d="M70 739q0 366 152.5 561t439.5 195t439 -195t152 -561q0 -367 -152 -562t-439 -195t-439.5 195t-152.5 562zM305 739q0 -328 87.5 -486.5t269.5 -158.5q181 0 267.5 158t86.5 487q0 328 -86.5 485.5t-267.5 157.5q-182 0 -269.5 -158t-87.5 -485z" />
<glyph unicode="P" d="M133 0q14 182 14 309v858q0 128 -12 275l-2 35h395q275 0 421.5 -108.5t146.5 -309.5q0 -119 -54.5 -210.5t-156.5 -143.5q-74 -40 -157.5 -56t-219.5 -16h-137v-324q0 -139 12 -274l2 -35h-252zM371 762h112q102 0 162.5 12.5t104.5 42.5q57 38 89.5 102.5t32.5 139.5 q0 143 -96 219t-276 76h-129v-592z" />
<glyph unicode="Q" horiz-adv-x="1318" d="M70 737q0 367 152.5 562.5t439.5 195.5t440 -195.5t153 -560.5q0 -534 -305 -680q112 -28 203 -28q53 0 92 2l-78 -178q-166 50 -272 79q-19 4 -90.5 21t-132.5 29q-110 8 -169.5 19.5t-111.5 35.5q-155 74 -238 253.5t-83 444.5zM303 803q0 -44 4 -64l27 -229 q21 -152 45 -229q28 -83 106.5 -135t176.5 -52q181 0 267.5 158t86.5 487q0 328 -86.5 485.5t-267.5 157.5q-95 0 -170 -49t-113 -135q-32 -78 -54 -191.5t-22 -203.5z" />
<glyph unicode="R" horiz-adv-x="1175" d="M133 0q14 198 14 309v856q0 104 -10 277l-2 35h483q226 0 356 -105.5t130 -288.5q0 -170 -111 -272.5t-325 -130.5l270 -371l96 -116l107 -138l41 -55h-287l-47 74l-55 86q-4 6 -8.5 13t-9 12.5t-5.5 7.5l-88 116l-254 342h-61v-342q0 -83 12 -309h-246zM367 774 q20 -2 47 -2q14 0 96 4q183 13 272.5 86.5t89.5 208.5q0 141 -95 210t-290 69h-120v-576z" />
<glyph unicode="S" horiz-adv-x="1009" d="M72 80v192q185 -168 368 -168q128 0 212.5 76t84.5 191q0 85 -55 150t-180 128l-111 53q-119 65 -139 80q-178 122 -178 312q0 168 139 283.5t342 115.5q73 0 138 -14.5t161 -51.5l12 -4v-192q-91 76 -165.5 108.5t-153.5 32.5q-115 0 -188.5 -65t-73.5 -166 q0 -79 42.5 -128.5t161.5 -109.5l140 -72q82 -35 137 -75q184 -127 184 -336q0 -194 -141 -316t-365 -122q-90 0 -175.5 22t-196.5 76z" />
<glyph unicode="T" horiz-adv-x="843" d="M-70 1329v148h981v-148q-173 17 -239 17h-142v-1037q0 -12 3 -50.5t4 -65.5q3 -94 6 -119q1 -14 2 -37.5t2 -36.5h-250q1 13 2 36.5t2 37.5q3 25 6 119q4 106 4 116v1037h-139q-65 0 -242 -17z" />
<glyph unicode="U" horiz-adv-x="1310" d="M133 1477h252q-12 -169 -12 -310l-2 -706q0 -111 18 -178q59 -179 313 -179q109 0 188.5 39t119.5 111q28 52 28 172v741q0 62 -2 117q-5 115 -14 193h158q-13 -180 -13 -310v-735q0 -230 -125.5 -339t-392.5 -109q-240 0 -371 116.5t-131 331.5l5 735q0 11 -3 49.5 t-4 67.5q-6 111 -8 121q0 8 -0.5 17t-1.5 25t-2 30z" />
<glyph unicode="V" horiz-adv-x="1028" d="M-88 1477h268q4 -16 9.5 -36.5t9.5 -37.5q36 -130 73 -238l301 -874l295 874q45 141 82 275l8 37h158l-14 -37q-44 -110 -101 -275l-364 -1071l37 -94h-234l-405 1165q-57 152 -109 277z" />
<glyph unicode="W" horiz-adv-x="1755" d="M-72 1477h258q30 -153 72 -314l227 -827l328 1044l-27 97h228l344 -1149l235 835q14 49 33 119q36 156 43 195h158l-25 -76q-57 -166 -76 -238l-303 -1061l27 -102h-227l-349 1151l-327 -1049l26 -102h-227l-317 1163q-2 8 -35 119q-3 12 -39 119q-13 42 -14 45z" />
<glyph unicode="X" horiz-adv-x="1226" d="M-16 0l24 33q11 11 31 41q16 20 32.5 41.5t33 44.5t24.5 33q5 7 36 50.5t48 65.5l295 430l-260 424q-9 14 -36 55t-42 64l-41 64l-39 55l-47 76h287q7 -14 15 -29.5t13 -25.5t9 -21q19 -35 65.5 -115.5t69.5 -122.5l143 -233l150 235q2 3 77 117q95 155 117 195h193 l-56 -74q-54 -68 -88 -121q-15 -18 -46 -62.5t-38 -54.5l-235 -348l311 -508q67 -114 211 -309h-289l-16 31q-3 4 -11 18t-14 23q-16 28 -37 68t-28 53q-48 77 -74 116l-192 316l-207 -316q-59 -80 -80 -116q-6 -10 -43.5 -71t-52.5 -87l-23 -35h-190z" />
<glyph unicode="Y" horiz-adv-x="1001" d="M-117 1477h283l37 -74q7 -12 21.5 -38.5t17.5 -31.5q9 -21 26 -49l68 -119l211 -370l221 372q17 28 33.5 56t25 42.5t11.5 18.5q2 4 65 119q31 64 35 74h178l-26 -39q-8 -14 -39 -59.5t-62 -94.5q-17 -26 -34.5 -53.5t-27 -43t-14.5 -22.5l-305 -510v-344q0 -161 10 -276 l3 -35h-246q10 173 10 311v336l-301 518q-7 15 -74 119q-14 22 -50 77.5t-50 76.5z" />
<glyph unicode="Z" horiz-adv-x="1099" d="M-2 0l770 1346h-414q-80 0 -170 -11q-30 -5 -110 -26v168h1003l-770 -1348h408q121 0 215 12q6 1 139 29v-170h-1071z" />
<glyph unicode="[" horiz-adv-x="491" d="M131 -217q12 509 12 895q0 364 -10 891h322v-142l-129 3q-11 -490 -11 -752q0 -269 11 -756l127 -2v-137h-322z" />
<glyph unicode="\" horiz-adv-x="608" d="M96 1475h156l260 -1475h-158z" />
<glyph unicode="]" horiz-adv-x="493" d="M39 -76h127q10 445 10 754q0 310 -10 752l-123 2v137h317q-12 -521 -12 -926q0 -368 12 -860h-321v141z" />
<glyph unicode="^" horiz-adv-x="557" d="M8 1141q75 80 131 164q38 61 84 147h111q55 -104 84 -147q61 -87 131 -164h-141l-129 202l-127 -202h-144z" />
<glyph unicode="_" horiz-adv-x="929" d="M96 0h738v-61h-738v61z" />
<glyph unicode="`" horiz-adv-x="522" d="M8 1452h176q53 -113 72 -147q51 -87 102 -164h-106z" />
<glyph unicode="a" horiz-adv-x="1046" d="M76 281q0 104 61 180.5t195 140t368 129.5v37q0 80 -77 134t-189 54q-126 0 -264 -82v166q139 25 268 25q218 0 339.5 -78.5t121.5 -216.5v-532q0 -79 6.5 -127.5t26.5 -110.5h-215q-15 46 -15 78v24q-84 -65 -153 -92.5t-152 -27.5q-141 0 -231 83.5t-90 215.5zM268 299 q0 -84 58 -136t149 -52q64 0 116.5 21t110.5 69v434l-92 -35q-106 -42 -148.5 -63t-88.5 -54q-105 -73 -105 -184z" />
<glyph unicode="b" horiz-adv-x="1069" d="M117 37q24 76 31.5 128t7.5 140v858q0 130 -13 314h213v-539q64 67 127.5 96t143.5 29q172 0 273 -137.5t101 -370.5q0 -257 -126.5 -415t-331.5 -158q-87 0 -146 21.5t-121 78.5l-90 -88zM356 322q0 -115 48.5 -176.5t140.5 -61.5q120 0 183 117.5t63 337.5 q0 192 -57.5 292.5t-166.5 100.5q-114 0 -211 -117v-493z" />
<glyph unicode="c" horiz-adv-x="892" d="M70 487q0 249 155 412.5t391 163.5q106 0 220 -33v-166q-59 46 -111 66t-113 20q-146 0 -242 -124t-96 -312q0 -178 87 -291.5t221 -113.5q80 0 143 32q55 24 111 78l59 -92q-95 -77 -180.5 -110t-186.5 -33q-205 0 -331.5 139t-126.5 364z" />
<glyph unicode="d" horiz-adv-x="1054" d="M72 487q0 160 58 292t159.5 208t224.5 76q111 0 199 -80v182q0 11 -0.5 26t-1.5 42t-2 49q-1 59 -4 121.5t-3 73.5h209v-1168q0 -159 13 -309h-207v90q-63 -59 -123.5 -84.5t-130.5 -25.5q-172 0 -281.5 142t-109.5 365zM274 514q0 -197 64 -302.5t182 -105.5 q115 0 193 117v643q-81 84 -174 84q-119 0 -192 -120.5t-73 -315.5z" />
<glyph unicode="e" horiz-adv-x="983" d="M70 541q0 228 126 376t322 148q166 0 268 -101t125 -290l-622 -254q31 -153 114 -239.5t201 -86.5q142 0 262 129l64 -82q-85 -83 -176 -122t-203 -39q-214 0 -347.5 156t-133.5 405zM266 602q0 -49 4 -84l385 160q45 16 45 72q0 38 -28 96q-62 112 -162 112 q-107 0 -175.5 -100t-68.5 -256z" />
<glyph unicode="f" horiz-adv-x="569" d="M0 948v92h162v58q0 173 111.5 286t281.5 113q74 0 172 -33v-166q-47 45 -88 64.5t-94 19.5q-86 0 -141.5 -53.5t-55.5 -138.5q0 -78 29 -150h274v-94h-291v-637q0 -113 13 -276l4 -33h-232q17 177 17 309v639h-162z" />
<glyph unicode="g" horiz-adv-x="1056" d="M70 489q0 164 57.5 295t161 205t233.5 74q78 0 140.5 -22.5t130.5 -75.5l77 77l62 -41q-20 -71 -23.5 -111t-3.5 -183v-215q3 -346 6 -404l11 -147v-29q0 -155 -116 -243.5t-317 -88.5q-196 0 -350 68q-6 2 -59 28l35 148q97 -74 178.5 -106.5t167.5 -32.5q126 0 192 60 t66 177q0 68 -10 178q-59 -59 -119.5 -85.5t-134.5 -26.5q-170 0 -277.5 140t-107.5 361zM268 498q0 -184 62.5 -288t171.5 -104q72 0 122 35t85 109v620q-86 86 -189 86q-117 0 -184.5 -122.5t-67.5 -335.5z" />
<glyph unicode="h" horiz-adv-x="1120" d="M133 0q14 164 14 309v858q0 118 -10 275l-4 35h217v-551q140 137 305 137q100 0 179 -46.5t116 -125.5q25 -66 25 -154v-428q0 -145 12 -278l2 -31h-227l2 37q4 71 6 156q4 114 4 116v420q0 59 -12 94q-22 46 -72.5 75.5t-111.5 29.5q-128 0 -230 -111v-508 q0 -117 10 -274l2 -35h-227z" />
<glyph unicode="i" horiz-adv-x="495" d="M117 1300q0 61 34 88t111 27q54 0 85.5 -28.5t31.5 -79.5q0 -66 -34 -95.5t-112 -29.5q-56 0 -86 30.5t-30 87.5zM131 0q16 187 16 309l5 434v7q0 17 -3 55t-4 59q-2 72 -12 176h217v-731q0 -87 2 -116q0 -73 10 -193h-231z" />
<glyph unicode="j" horiz-adv-x="495" d="M-90 -223q58 -72 137 -72q52 0 76 39.5t24 124.5v864q0 169 -16 307h217v-1120q0 -112 -22 -186q-26 -73 -90.5 -113.5t-155.5 -40.5t-170 35v162zM117 1300q0 61 34 88t111 27q55 0 87 -28.5t32 -79.5q0 -66 -35 -95.5t-113 -29.5q-56 0 -86 30.5t-30 87.5z" />
<glyph unicode="k" horiz-adv-x="1011" d="M133 0q10 107 19 309v856q0 127 -19 312h217v-791q62 82 98.5 122.5t92.5 86.5q109 90 193.5 127.5t197.5 46.5v-145q-105 -12 -176 -41q-41 -19 -70.5 -38t-79.5 -59l248 -477q3 -5 11.5 -19.5t25 -42.5t33.5 -57q75 -128 116 -190h-243l-342 639q-41 -41 -64 -72 q-1 -2 -16 -25.5t-25 -41.5v-191q0 -164 12 -309h-229z" />
<glyph unicode="l" horiz-adv-x="489" d="M133 0q12 226 12 309v856q0 157 -10 277l-2 35h213v-1168q0 -92 8 -272l2 -37h-223z" />
<glyph unicode="m" horiz-adv-x="1617" d="M133 0q12 159 12 309v424q0 143 -12 307h213v-86q16 14 53 39q49 32 110.5 51t117.5 19q163 0 247 -117q11 8 25 18t23.5 17t15.5 10q112 72 240 72q96 0 170 -44t106 -120q21 -49 21 -141v-449q0 -112 8 -272l2 -37h-225l2 37q1 20 2.5 43.5t4 56.5t3.5 56q4 106 4 116 v432q0 59 -12 86q-13 45 -58.5 73t-103.5 28q-53 0 -98.5 -18t-98.5 -60v-541q0 -21 1 -62.5t1 -53.5q0 -72 11 -193h-226l2 35q15 138 15 274v471q0 48 -11 74q-19 35 -60.5 57.5t-88.5 22.5q-96 0 -203 -82v-543q0 -102 8 -274l2 -35h-223z" />
<glyph unicode="n" horiz-adv-x="1124" d="M133 0q19 241 19 311v428q0 40 -3.5 112.5t-3.5 78.5q-1 16 -8 110h215v-122q71 72 137.5 104.5t145.5 32.5q153 0 248 -76q51 -39 73.5 -99t22.5 -151v-422q0 -117 12 -307h-229l2 35q3 32 6 84q10 160 10 184v426q0 100 -49.5 148.5t-152.5 48.5q-69 0 -120 -30 t-106 -103v-482q0 -137 2 -180q1 -26 8 -131h-229z" />
<glyph unicode="o" horiz-adv-x="1040" d="M70 518q0 247 122 394t328 147t329.5 -147t123.5 -394t-123.5 -395t-329.5 -148q-205 0 -327.5 147.5t-122.5 395.5zM281 518q0 -124 17 -202.5t56 -131.5q28 -41 75 -68.5t91 -27.5t91 27.5t75 68.5q40 55 57 131.5t17 194.5q0 130 -17 207.5t-57 134.5 q-29 41 -75.5 67.5t-90.5 26.5q-46 0 -92 -26.5t-74 -67.5q-40 -57 -56.5 -134t-16.5 -200z" />
<glyph unicode="p" horiz-adv-x="1058" d="M133 1040h205l6 -84q61 58 119 82.5t133 24.5q173 0 283 -142t110 -366q0 -159 -56 -289t-154.5 -204t-217.5 -74q-65 0 -113 16t-100 57v-151q0 -93 8 -277v-39h-221q12 222 12 316v821q0 154 -14 309zM348 193q39 -50 78 -71.5t94 -21.5q123 0 193.5 119t70.5 328 q0 181 -65 289t-174 108q-116 0 -197 -123v-628z" />
<glyph unicode="q" horiz-adv-x="1087" d="M70 485q0 257 127.5 418.5t332.5 161.5q86 0 145 -22t122 -78l92 84l67 -37q-19 -50 -28 -99q-8 -47 -8 -129v-886v-119q2 -68 8 -172h-228q7 47 7 53q7 83 8 119q2 63 2 119v211q-71 -71 -132.5 -100t-138.5 -29q-172 0 -274 137t-102 368zM279 510q0 -188 59.5 -291.5 t165.5 -103.5q113 0 213 118v506q0 105 -49 166.5t-133 61.5q-121 0 -188.5 -120t-67.5 -337z" />
<glyph unicode="r" horiz-adv-x="634" d="M133 1040h205q20 -49 20 -104v-31q40 83 103 120.5t162 37.5q12 0 22 -2v-170q-43 6 -72 6q-98 0 -154.5 -66t-56.5 -180v-342q0 -150 11 -274l4 -35h-230q17 180 17 309v484q0 98 -8 153q-1 9 -23 94z" />
<glyph unicode="s" horiz-adv-x="864" d="M57 61l4 179q56 -44 86 -63.5t72 -37.5q93 -41 178 -41q88 0 149.5 50t61.5 122q0 49 -33.5 85t-111.5 71l-74 31q-89 37 -141 67q-162 83 -162 232q0 131 111.5 219t277.5 88q128 0 264 -43l4 -176q-86 57 -135 74q-88 30 -151 30q-76 0 -122 -39.5t-46 -105.5 q0 -51 39 -89t129 -75l82 -33q146 -60 207 -129.5t61 -175.5q0 -143 -113.5 -230t-300.5 -87q-93 0 -203 26q-74 23 -133 51z" />
<glyph unicode="t" horiz-adv-x="555" d="M-10 940v100h168v29l-2 121q0 51 -4 153l-5 37h209v-340h211v-102h-211v-668q0 -88 24.5 -127t80.5 -39q61 0 125 50v-134q-88 -36 -178 -36q-250 0 -250 243v713h-168z" />
<glyph unicode="u" horiz-adv-x="1124" d="M133 1044h229l-4 -45q-12 -196 -12 -258v-424q0 -103 49.5 -150.5t155.5 -47.5q69 0 114 27.5t107 103.5v483q0 88 -4 178q0 45 -8 133h231q-18 -184 -18 -311v-428q0 -143 14 -301h-215v125q-130 -139 -289 -139q-64 0 -130 21t-111 55q-97 75 -97 251v418 q0 119 -12 309z" />
<glyph unicode="v" horiz-adv-x="897" d="M-4 1040h223q58 -226 117 -417q60 -188 147 -424q106 265 156 430q62 189 115 411h147q-70 -266 -147 -499q-74 -216 -207 -541h-180q-128 294 -220 547q-61 177 -151 493z" />
<glyph unicode="w" horiz-adv-x="1386" d="M-4 1040h223q91 -367 92 -372q44 -151 131 -428l207 800h166l203 -802q83 236 127 397q51 185 102 405h144q-69 -281 -134 -489q-69 -229 -192 -551h-168l-199 748l-202 -748h-166q-133 363 -191 545q-60 187 -143 495z" />
<glyph unicode="x" horiz-adv-x="913" d="M6 0q47 71 102.5 152t79.5 116q82 119 179 256l-312 516h228l206 -354l60 90q7 10 26 41.5t33 52.5q18 27 53 77t64 93h154q-112 -153 -158 -221q-94 -139 -156 -233l90 -150q76 -131 88 -153q37 -57 84 -142l82 -141h-235l-236 414l-71 -109q-12 -16 -68 -106l-63 -99 l-64 -100h-166z" />
<glyph unicode="y" horiz-adv-x="843" d="M-29 -248q56 -45 119 -45q88 0 162 80q37 40 58.5 90t21.5 94q0 49 -41 148q-71 169 -152 405q-76 240 -145 516h217q57 -254 108 -415q48 -168 148 -432q86 246 139 432q47 167 101 415h143q-9 -38 -19.5 -87.5t-18 -82.5t-13.5 -55q-104 -439 -273 -809 q-52 -111 -115.5 -206t-121.5 -148q-81 -68 -205 -68q-54 0 -113 13v155z" />
<glyph unicode="z" horiz-adv-x="903" d="M43 0l551 938h-256q-80 0 -152 -14q-50 -15 -120 -54v170h808l-550 -931l254 4q113 0 180 22q40 11 96 49v-184h-811z" />
<glyph unicode="{" horiz-adv-x="647" d="M96 737q56 3 92.5 43.5t36.5 104.5v676q0 70 42.5 107.5t123.5 37.5h160v-92h-25q-71 0 -94.5 -24t-23.5 -95v-594q0 -63 -41.5 -110.5t-104.5 -53.5q63 -6 104.5 -53.5t41.5 -110.5v-593q0 -71 23.5 -95t94.5 -24h25v-92h-160q-81 0 -123.5 37.5t-42.5 107.5v676 q0 64 -36.5 104t-92.5 43z" />
<glyph unicode="|" horiz-adv-x="348" d="M96 0v1475h156v-1475h-156z" />
<glyph unicode="}" horiz-adv-x="647" d="M96 -139h25q72 0 95.5 24t23.5 95v593q0 64 41.5 111t103.5 53q-62 6 -103.5 53t-41.5 111v594q0 71 -23.5 95t-95.5 24h-25v92h160q81 0 123.5 -37.5t42.5 -107.5v-676q0 -64 36.5 -104.5t92.5 -43.5q-56 -3 -92.5 -43t-36.5 -104v-676q0 -70 -42.5 -107.5t-123.5 -37.5 h-160v92z" />
<glyph unicode="~" horiz-adv-x="733" d="M8 1604v161q77 29 152 29t221 -35q150 -30 211 -30q66 0 133 30v-164q-82 -32 -152 -32t-223 32q-154 33 -207 33q-59 0 -135 -24z" />
<glyph unicode="&#xa0;" horiz-adv-x="1024" d="M0 0z" />
<glyph unicode="&#xa1;" horiz-adv-x="413" d="M90 1370q0 61 34.5 89t108.5 28q56 0 88.5 -29t32.5 -78q0 -65 -32 -95t-99 -30q-133 0 -133 115zM98 -2l58 1069h137l51 -1069h-246z" />
<glyph unicode="&#xa2;" horiz-adv-x="892" d="M70 492q0 172 83.5 311.5t227.5 208.5q42 20 104 35v153l95 2v-143h24l58 -2q50 0 83 -5t91 -22v-166q-62 47 -109.5 65.5t-108.5 18.5h-20h-20l-3 -846q48 5 76.5 12t73.5 27q36 15 56.5 30t54.5 48l59 -92q-33 -28 -64 -47q-38 -26 -90 -53q-43 -20 -74.5 -28.5 t-88.5 -14.5v-160l-93 -4v168q-84 7 -147 35q-129 58 -198.5 180.5t-69.5 288.5zM276 502q0 -193 103 -305q34 -34 106 -72l-2 786q-98 -47 -152.5 -154t-54.5 -255z" />
<glyph unicode="&#xa3;" horiz-adv-x="976" d="M76 639v100h149q-149 226 -149 391q0 163 114 264t297 101q86 0 158.5 -20.5t212.5 -83.5l8 -5l-28 -208q-145 186 -326 186q-91 0 -151 -58.5t-60 -146.5q0 -113 61 -229l78 -154q2 -3 8 -15.5t11 -21.5h338v-100h-310q54 -126 54 -211q0 -167 -197 -307q28 0 67 -1 t48 -1q263 0 385 28q32 8 96 46l-31 -193h-831v117h24q72 0 140 41q63 38 89.5 86.5t26.5 126.5q0 85 -88 268h-194z" />
<glyph unicode="&#xa4;" horiz-adv-x="1013" d="M96 436l127 125q-58 79 -58.5 178.5t56.5 178.5l-123 118q23 34 64 72l127 -127q79 60 179 60.5t179 -58.5l125 127q35 -28 55 -53q1 -1 7 -8.5t8 -12.5l-127 -118q58 -80 57.5 -179.5t-59.5 -179.5l127 -127l-15 -16l-16 -15q-21 -22 -39 -34l-123 127 q-79 -60 -178.5 -60t-177.5 60l-129 -125q-37 27 -66 67zM264 737q0 -84 60 -143t145 -59q84 0 143 59q60 60 60 143.5t-60 143.5q-59 59 -143 59q-85 0 -145 -59t-60 -144z" />
<glyph unicode="&#xa5;" horiz-adv-x="1349" d="M59 1477h281l18 -33t21 -41q4 -8 17 -32t20 -38q23 -43 26 -49l70 -119l213 -370l219 372l60 99q8 16 26.5 50.5t44 82.5t41.5 78h174l-24 -39q-43 -62 -168 -260q-3 -3 -8 -13l-209 -358h295v-113h-363l-29 -39v-49h392v-110l-394 -2l2 -183l2 -118q0 -13 9 -193h-246 q14 233 14 307v4l-2 181h-387v114h389v41l-33 47l-356 4v111h295l-207 356q-5 8 -15 23.5t-28 44t-33 51.5q-32 51 -102 154z" />
<glyph unicode="&#xa7;" horiz-adv-x="1146" d="M72 545q0 120 90 239q38 51 114 111q-77 48 -108 103.5t-31 150.5q0 156 121 252t317 96q213 0 337 -112.5t130 -311.5l-186 2q-6 135 -85 213t-208 78q-97 0 -158 -52.5t-61 -135.5q0 -68 31 -108t121 -85l329 -168q121 -63 184.5 -155t63.5 -205q0 -135 -92 -244 q-22 -27 -43 -44.5t-70 -49.5q11 -6 30.5 -20t29.5 -19q37 -31 58.5 -86.5t21.5 -122.5q0 -173 -124 -276t-333 -103q-440 0 -461 438l186 -4q3 -141 78.5 -223t202.5 -82q105 0 175.5 63t70.5 154q0 60 -27 98t-94 72l-358 182q-121 63 -186.5 155.5t-65.5 199.5zM254 580 q0 -60 33 -109t94 -82l358 -180q154 88 154 211q0 124 -162 209l-323 172q-154 -110 -154 -221z" />
<glyph unicode="&#xa8;" horiz-adv-x="479" d="M-61 1251q0 53 29.5 81t86.5 28q48 0 77.5 -30t29.5 -79q0 -53 -30 -81.5t-83 -28.5t-81.5 28t-28.5 82zM317 1251q0 53 30.5 81t88.5 28q46 0 75.5 -30t29.5 -79q0 -53 -29.5 -81.5t-81.5 -28.5q-54 0 -83.5 28t-29.5 82z" />
<glyph unicode="&#xa9;" horiz-adv-x="1765" d="M119 739q0 152 58 293t165 248q147 146 343.5 198t393.5 0t344 -198q110 -110 167.5 -253t57.5 -287.5t-57.5 -287.5t-167.5 -253t-253 -167.5t-287.5 -57.5t-287.5 57.5t-253 167.5q-107 107 -165 247.5t-58 292.5zM221 739q0 -133 51.5 -257t145.5 -220 q126 -127 296 -172t340 0t296 172q128 130 173 303t-0.5 346t-172.5 303q-127 128 -297 173.5t-339.5 0t-295.5 -173.5q-94 -96 -145.5 -219t-51.5 -256zM413.5 707.5q-0.5 100.5 35.5 207.5q62 167 214.5 254t337.5 56q135 -25 238 -111l-61 -90q-78 69 -181 90 q-121 23 -227.5 -22.5t-169.5 -144.5t-61 -224q0 -39 6 -76q19 -95 80 -167.5t141.5 -107t177 -29t180.5 57.5q31 20 50 37l63 -88q-132 -111 -317 -117q-105 -3 -198.5 33t-159 100.5t-107 152.5t-42 188.5z" />
<glyph unicode="&#xaa;" horiz-adv-x="913" d="M102 1061q-18 97 8.5 185.5t82 147.5t133.5 86.5t159 10.5q123 -27 179 -125l10 -16l6 -15v140h135l2 -678h-137v149l-6 -16q-44 -95 -149.5 -132.5t-225.5 9.5q-77 31 -128.5 96.5t-68.5 157.5zM117 571v125h700v-125h-700zM236 1139q0 -26 6 -47q18 -99 94 -152 q59 -40 126 -39t124 41q74 54 92 148q9 49 0 98q-24 122 -127 170q-89 42 -178 2q-52 -23 -86.5 -69.5t-46.5 -108.5q-4 -28 -4 -43z" />
<glyph unicode="&#xab;" horiz-adv-x="763" d="M59 496v84q47 64 88 131q70 107 129 215h146l-205 -383l201 -387h-146q-71 131 -127 215q-70 104 -86 125zM344 496v84q64 92 88 131q54 82 129 215h144l-205 -383l202 -387h-147q-71 128 -125 215q-59 87 -86 125z" />
<glyph unicode="&#xac;" horiz-adv-x="1187" d="M96 737v156h996v-451h-129v295h-867z" />
<glyph unicode="&#xad;" horiz-adv-x="595" d="M49 469v174h500v-174h-500z" />
<glyph unicode="&#xae;" horiz-adv-x="1765" d="M119 739q0 152 58 293t165 248q147 146 343.5 198t393.5 0t344 -198q110 -110 167.5 -253t57.5 -287.5t-57.5 -287.5t-167.5 -253t-253 -167.5t-287.5 -57.5t-287.5 57.5t-253 167.5q-107 107 -165 247.5t-58 292.5zM221 739q0 -133 51.5 -257t145.5 -220 q126 -127 296 -172t340 0t296 172q128 130 173 303t-0.5 346t-172.5 303q-127 128 -297 173.5t-339.5 0t-295.5 -173.5q-94 -96 -145.5 -219t-51.5 -256zM643 268v961h225q81 0 128.5 -13t86.5 -45q68 -56 86 -147q23 -126 -36.5 -212t-176.5 -101q-5 0 -16 -1t-16 -1 l301 -441h-146l-313 473v-473h-123zM766 782h80q99 -1 151 43t54 127q2 82 -48 128t-145 46h-92v-344z" />
<glyph unicode="&#xaf;" horiz-adv-x="591" d="M-8 1157v141h602v-141h-602z" />
<glyph unicode="&#xb1;" horiz-adv-x="1124" d="M90 39v139h946v-139h-946zM90 539v139h404v250h139v-250h403v-139h-403v-250h-139v250h-404z" />
<glyph unicode="&#xb4;" horiz-adv-x="487" d="M164 1139q36 59 86 161q20 43 55 152h174l-217 -313h-98z" />
<glyph unicode="&#xb5;" horiz-adv-x="1179" d="M150 -285q0 5 0.5 19.5t1.5 43t2 56.5q4 132 4 182q0 117 -2 207q-4 180 -4 195v502h188v-607q0 -143 29 -194q25 -46 102 -49q119 0 195 163q74 161 77 420v267h189v-672q0 -92 18 -135q18 -40 60 -43q41 0 65 43q23 44 23 125v28h43q0 -10 2 -18v-27q0 -114 -49 -178 q-44 -58 -136 -61q-100 0 -155 88q-50 81 -53 264q-47 -182 -125 -266q-77 -83 -199 -86q-88 0 -150 53q-57 54 -81 158q0 -31 -2 -58q0 -136 65 -289q66 -160 66 -188q0 -41 -23 -64q-19 -19 -63 -22q-48 0 -68 35q-17 28 -20 108z" />
<glyph unicode="&#xb6;" horiz-adv-x="1220" d="M96 1075q0 165 116.5 282.5t279.5 117.5h632v-107h-632q-120 0 -205 -87t-82 -210q1 -121 85 -205t202 -84h141v496h112v-1278h-112v676h-141q-163 0 -279.5 117t-116.5 282zM881 0v1278h112v-1278h-112z" />
<glyph unicode="&#xb7;" horiz-adv-x="380" d="M59 549q0 61 34.5 89t105.5 28q57 0 90 -29t33 -80q0 -64 -32 -94.5t-100 -30.5q-131 0 -131 117z" />
<glyph unicode="&#xb8;" horiz-adv-x="378" d="M143 -98q77 43 154 43q60 0 98.5 -36.5t38.5 -94.5q0 -74 -69.5 -137t-188.5 -95v68q62 11 96.5 43.5t34.5 79.5q0 67 -61 67q-56 0 -103 -53v115z" />
<glyph unicode="&#xba;" horiz-adv-x="913" d="M96 1141q0 40 8 73q17 84 66 150t117 101t149.5 41.5t163.5 -29.5q118 -48 177.5 -162.5t33.5 -247.5q-22 -108 -97.5 -185t-183.5 -100q-74 -12 -145 0q-109 23 -185 99.5t-98 185.5q-6 38 -6 74zM109 571v125h698v-125h-698zM233 1141q0 -22 3 -43q21 -125 129 -174 q101 -47 197.5 5.5t115.5 166.5q12 74 -13 138t-79 103q-50 35 -107.5 41.5t-113.5 -18.5q-108 -52 -129 -174q-3 -21 -3 -45z" />
<glyph unicode="&#xbb;" horiz-adv-x="761" d="M59 156l205 387l-205 383h144q55 -103 125 -211q15 -25 43.5 -65.5t48.5 -71.5v-80q-23 -33 -49.5 -71t-36.5 -52q-63 -100 -131 -219h-144zM344 156l203 387l-203 383h143q48 -88 123 -211q17 -27 95 -137v-80q-47 -63 -87 -123q-70 -106 -131 -219h-143z" />
<glyph unicode="&#xbf;" horiz-adv-x="839" d="M20 375q0 158 104 261t284 122v313h139v-469q-20 2 -49 2q-112 0 -183 -70t-71 -180q0 -107 73.5 -179.5t180.5 -72.5q163 0 227 152l115 -143q-95 -68 -183 -97.5t-194 -29.5q-196 0 -319.5 109.5t-123.5 281.5zM348 1374q0 62 34 90.5t107 28.5q55 0 88 -29.5t33 -79.5 q0 -64 -31.5 -94t-97.5 -30q-133 0 -133 114z" />
<glyph unicode="&#xc0;" horiz-adv-x="1226" d="M-10 0q76 177 123 309l383 1096l-9 72h226l401 -1168q37 -101 121 -309h-281q-49 206 -86 311l-53 154h-508l-57 -156q-26 -72 -37 -116q-32 -114 -49 -193h-174zM348 586h428l-211 641zM360 1960h177q62 -133 71 -148q40 -69 103 -163h-107z" />
<glyph unicode="&#xc1;" horiz-adv-x="1226" d="M-10 0q76 177 123 309l383 1096l-9 72h226l401 -1168q37 -101 121 -309h-281q-49 206 -86 311l-53 154h-508l-57 -156q-26 -72 -37 -116q-32 -114 -49 -193h-174zM348 586h428l-211 641zM532 1647q36 59 86 161q23 50 56 152h174l-217 -313h-99z" />
<glyph unicode="&#xc2;" horiz-adv-x="1226" d="M-10 0q76 177 123 309l383 1096l-9 72h226l401 -1168q37 -101 121 -309h-281q-49 206 -86 311l-53 154h-508l-57 -156q-26 -72 -37 -116q-32 -114 -49 -193h-174zM342 1649q77 82 131 163q35 55 84 148h111q57 -108 84 -148q58 -83 131 -163h-142l-129 202l-127 -202 h-143zM348 586h428l-211 641z" />
<glyph unicode="&#xc3;" horiz-adv-x="1226" d="M-10 0q76 177 123 309l383 1096l-9 72h226l401 -1168q37 -101 121 -309h-281q-49 206 -86 311l-53 154h-508l-57 -156q-26 -72 -37 -116q-32 -114 -49 -193h-174zM319 1786q57 29 144 29q36 0 158 -19q91 -16 149 -16q68 0 127 30l6 -127q-65 -32 -135 -32q-43 0 -166 16 q-106 19 -151 19q-67 0 -125 -27zM348 586h428l-211 641z" />
<glyph unicode="&#xc4;" horiz-adv-x="1226" d="M-10 0q76 177 123 309l383 1096l-9 72h226l401 -1168q37 -101 121 -309h-281q-49 206 -86 311l-53 154h-508l-57 -156q-26 -72 -37 -116q-32 -114 -49 -193h-174zM309 1612q0 55 29.5 80.5t91.5 25.5q48 0 76.5 -28.5t28.5 -77.5q0 -107 -115 -107q-111 0 -111 107z M348 586h428l-211 641zM688 1612q0 106 123 106q47 0 73.5 -28t26.5 -78q0 -107 -112 -107q-111 0 -111 107z" />
<glyph unicode="&#xc5;" horiz-adv-x="1220" d="M-10 0q76 177 123 309l383 1096l-9 72h226l401 -1168q37 -101 121 -309h-281q-49 206 -86 311l-53 154h-508l-57 -156q-26 -72 -37 -116q-32 -114 -49 -193h-174zM348 586h428l-211 641zM430 1683q0 72 51 123.5t123 51.5q70 0 119 -50.5t49 -121.5q0 -72 -50.5 -123.5 t-121.5 -51.5t-120.5 50.5t-49.5 121.5zM504 1686q0 -40 28.5 -69.5t69.5 -29.5q38 0 65 28t27 68t-27 67.5t-65 27.5q-40 0 -69 -27t-29 -65z" />
<glyph unicode="&#xc6;" horiz-adv-x="1812" d="M-10 0l22 37q15 27 97 156q31 53 71 116l611 1090l-7 78h955v-138q-34 2 -72 5t-57 4q-74 6 -211 6h-269v-533h209q120 0 277 17v-154q-166 16 -275 16h-211v-569h332q108 0 303 10v-141h-864q10 136 10 309v156h-497l-92 -156q-66 -109 -158 -309h-174zM483 586h428v770 z" />
<glyph unicode="&#xc7;" horiz-adv-x="1181" d="M70 727q0 224 89.5 398.5t251.5 271t371 96.5q88 0 158 -14.5t156 -51.5v-229q-137 174 -326 174q-150 0 -260 -90q-103 -80 -153 -212t-50 -329q0 -290 124 -462.5t333 -172.5q168 0 340 156l74 -90q-40 -36 -84 -66q-177 -124 -381 -124q-139 0 -259 55.5t-204 153.5 t-132 236.5t-48 299.5zM608 -98q77 43 154 43q60 0 98.5 -36.5t38.5 -94.5q0 -74 -69 -137t-187 -95v68q61 10 95 43t34 80q0 67 -61 67q-53 0 -103 -53v115z" />
<glyph unicode="&#xc8;" horiz-adv-x="1046" d="M133 0q12 170 12 309v856q0 157 -10 277l-2 35h838v-140l-45 4q-236 13 -293 13h-266v-535h204q88 0 277 17v-156q-188 20 -279 20h-202v-569h327q130 0 187 4q8 0 46 2t74 4v-141h-868zM270 1960h176q57 -120 72 -148q40 -69 103 -163h-107z" />
<glyph unicode="&#xc9;" horiz-adv-x="1046" d="M133 0q12 170 12 309v856q0 157 -10 277l-2 35h838v-140l-45 4q-236 13 -293 13h-266v-535h204q88 0 277 17v-156q-188 20 -279 20h-202v-569h327q130 0 187 4q8 0 46 2t74 4v-141h-868zM442 1647q36 59 86 161q23 50 56 152h174l-217 -313h-99z" />
<glyph unicode="&#xca;" horiz-adv-x="1046" d="M133 0q12 170 12 309v856q0 157 -10 277l-2 35h838v-140l-45 4q-236 13 -293 13h-266v-535h204q88 0 277 17v-156q-188 20 -279 20h-202v-569h327q130 0 187 4q8 0 46 2t74 4v-141h-868zM252 1649q77 82 131 163q35 55 84 148h111q57 -108 84 -148q58 -83 131 -163h-142 l-129 202l-127 -202h-143z" />
<glyph unicode="&#xcb;" horiz-adv-x="1046" d="M133 0q12 170 12 309v856q0 157 -10 277l-2 35h838v-140l-45 4q-236 13 -293 13h-266v-535h204q88 0 277 17v-156q-188 20 -279 20h-202v-569h327q130 0 187 4q8 0 46 2t74 4v-141h-868zM221 1759q0 53 30 81t87 28q47 0 76.5 -30t29.5 -79q0 -53 -29.5 -81.5 t-82.5 -28.5t-82 28t-29 82zM600 1759q0 53 30.5 81t88.5 28q46 0 75 -30t29 -79q0 -53 -29 -81.5t-81 -28.5q-54 0 -83.5 28t-29.5 82z" />
<glyph unicode="&#xcc;" horiz-adv-x="512" d="M4 1960h176q57 -120 72 -148q46 -80 102 -163h-106zM133 1477h244v-31q-1 -3 -1.5 -10t-1 -17t-1.5 -18q-1 -25 -3.5 -65t-2.5 -54v-119v-852q0 -69 10 -274l2 -37h-244q2 35 2 74q4 54 4 119q2 35 2 79v39v854q0 75 -8 275z" />
<glyph unicode="&#xcd;" horiz-adv-x="512" d="M133 1477h244v-31q-1 -3 -1.5 -10t-1 -17t-1.5 -18q-1 -25 -3.5 -65t-2.5 -54v-119v-852q0 -69 10 -274l2 -37h-244q2 35 2 74q4 54 4 119q2 35 2 79v39v854q0 75 -8 275zM176 1647q36 59 86 161q20 43 55 152h175l-218 -313h-98z" />
<glyph unicode="&#xce;" horiz-adv-x="512" d="M-14 1649q77 82 131 163q35 55 84 148h110q57 -108 84 -148q58 -83 131 -163h-141l-129 202l-127 -202h-143zM133 1477h244v-31q-1 -3 -1.5 -10t-1 -17t-1.5 -18q-1 -25 -3.5 -65t-2.5 -54v-119v-852q0 -69 10 -274l2 -37h-244q2 35 2 74q4 54 4 119q2 35 2 79v39v854 q0 75 -8 275z" />
<glyph unicode="&#xcf;" horiz-adv-x="512" d="M-45 1759q0 53 30 81t87 28q47 0 76.5 -30t29.5 -79q0 -53 -29.5 -81.5t-82.5 -28.5t-82 28t-29 82zM133 1477h244v-31q-1 -3 -1.5 -10t-1 -17t-1.5 -18q-1 -25 -3.5 -65t-2.5 -54v-119v-852q0 -69 10 -274l2 -37h-244q2 35 2 74q4 54 4 119q2 35 2 79v39v854 q0 75 -8 275zM334 1759q0 53 30.5 81t88.5 28q46 0 75 -30t29 -79q0 -53 -29.5 -81.5t-81.5 -28.5q-54 0 -83 28t-29 82z" />
<glyph unicode="&#xd1;" horiz-adv-x="1314" d="M133 0q10 182 10 311v854q0 155 -8 275l-2 37h199l708 -1139v829q0 147 -12 310h154q-1 -13 -1.5 -27.5t-1 -24.5t-1.5 -20q-9 -185 -9 -238v-856q0 -60 9 -276l4 -35h-181l-729 1171v-862q0 -111 11 -272l2 -37h-152zM362 1786q57 29 144 29q36 0 158 -19 q91 -16 149 -16q68 0 127 30l6 -127q-65 -32 -135 -32q-43 0 -166 16q-106 19 -151 19q-67 0 -125 -27z" />
<glyph unicode="&#xd2;" horiz-adv-x="1323" d="M70 739q0 366 152.5 561t439.5 195t439 -195t152 -561q0 -367 -152 -562t-439 -195t-439.5 195t-152.5 562zM305 739q0 -328 87.5 -486.5t269.5 -158.5q181 0 267.5 158t86.5 487q0 328 -86.5 485.5t-267.5 157.5q-182 0 -269.5 -158t-87.5 -485zM408 1960h176 q62 -133 71 -148q40 -69 103 -163h-107z" />
<glyph unicode="&#xd3;" horiz-adv-x="1323" d="M70 739q0 366 152.5 561t439.5 195t439 -195t152 -561q0 -367 -152 -562t-439 -195t-439.5 195t-152.5 562zM305 739q0 -328 87.5 -486.5t269.5 -158.5q181 0 267.5 158t86.5 487q0 328 -86.5 485.5t-267.5 157.5q-182 0 -269.5 -158t-87.5 -485zM582 1647q36 59 86 161 q20 43 55 152h174l-217 -313h-98z" />
<glyph unicode="&#xd4;" horiz-adv-x="1323" d="M70 739q0 366 152.5 561t439.5 195t439 -195t152 -561q0 -367 -152 -562t-439 -195t-439.5 195t-152.5 562zM305 739q0 -328 87.5 -486.5t269.5 -158.5q181 0 267.5 158t86.5 487q0 328 -86.5 485.5t-267.5 157.5q-182 0 -269.5 -158t-87.5 -485zM391 1649q77 82 131 163 q35 55 84 148h111q57 -108 84 -148q58 -83 131 -163h-141l-129 202l-127 -202h-144z" />
<glyph unicode="&#xd5;" horiz-adv-x="1323" d="M70 739q0 366 152.5 561t439.5 195t439 -195t152 -561q0 -367 -152 -562t-439 -195t-439.5 195t-152.5 562zM305 739q0 -328 87.5 -486.5t269.5 -158.5q181 0 267.5 158t86.5 487q0 328 -86.5 485.5t-267.5 157.5q-182 0 -269.5 -158t-87.5 -485zM367 1786q57 29 143 29 q36 0 158 -19q91 -16 149 -16q68 0 127 30l6 -127q-65 -32 -135 -32q-43 0 -166 16q-106 19 -151 19q-67 0 -125 -27z" />
<glyph unicode="&#xd6;" horiz-adv-x="1323" d="M70 739q0 366 152.5 561t439.5 195t439 -195t152 -561q0 -367 -152 -562t-439 -195t-439.5 195t-152.5 562zM264 1606q0 106 121 106q47 0 74.5 -28.5t27.5 -77.5q0 -107 -110 -107q-113 0 -113 107zM305 739q0 -328 87.5 -486.5t269.5 -158.5q181 0 267.5 158t86.5 487 q0 328 -86.5 485.5t-267.5 157.5q-182 0 -269.5 -158t-87.5 -485zM825 1606q0 106 121 106q47 0 74 -28t27 -78q0 -107 -111 -107t-111 107z" />
<glyph unicode="&#xd8;" horiz-adv-x="1304" d="M66 717q0 208 49 373q54 184 202 290.5t347 106.5q114 0 239 -43l33 86l92 -12l-47 -117q129 -83 200.5 -259t71.5 -415q0 -364 -152.5 -559t-438.5 -195q-75 0 -122.5 9t-125.5 38l-29 -67l-90 16l37 97q-45 34 -67 54.5t-46 51.5q-153 196 -153 545zM305 735 q0 -162 25 -319q11 -57 24.5 -94.5t44.5 -92.5l449 1084q-57 37 -92 48t-94 11q-91 0 -161.5 -41.5t-113.5 -120.5q-82 -147 -82 -475zM467 154q84 -66 199 -66q348 0 348 631q0 191 -23.5 312t-77.5 206z" />
<glyph unicode="&#xd9;" horiz-adv-x="1310" d="M133 1477h252q-12 -169 -12 -310l-2 -706q0 -111 18 -178q59 -179 313 -179q109 0 188.5 39t119.5 111q28 52 28 172v741q0 62 -2 117q-5 115 -14 193h158q-13 -180 -13 -310v-735q0 -230 -125.5 -339t-392.5 -109q-240 0 -371 116.5t-131 331.5l5 735q0 11 -3 49.5 t-4 67.5q-6 111 -8 121q0 8 -0.5 17t-1.5 25t-2 30zM401 1960h177q62 -133 71 -148q40 -69 103 -163h-107z" />
<glyph unicode="&#xda;" horiz-adv-x="1310" d="M133 1477h252q-12 -169 -12 -310l-2 -706q0 -111 18 -178q59 -179 313 -179q109 0 188.5 39t119.5 111q28 52 28 172v741q0 62 -2 117q-5 115 -14 193h158q-13 -180 -13 -310v-735q0 -230 -125.5 -339t-392.5 -109q-240 0 -371 116.5t-131 331.5l5 735q0 11 -3 49.5 t-4 67.5q-6 111 -8 121q0 8 -0.5 17t-1.5 25t-2 30zM575 1647q41 68 87 161q20 43 55 152h174l-217 -313h-99z" />
<glyph unicode="&#xdb;" horiz-adv-x="1310" d="M133 1477h252q-12 -169 -12 -310l-2 -706q0 -111 18 -178q59 -179 313 -179q109 0 188.5 39t119.5 111q28 52 28 172v741q0 62 -2 117q-5 115 -14 193h158q-13 -180 -13 -310v-735q0 -230 -125.5 -339t-392.5 -109q-240 0 -371 116.5t-131 331.5l5 735q0 11 -3 49.5 t-4 67.5q-6 111 -8 121q0 8 -0.5 17t-1.5 25t-2 30zM385 1649q77 82 131 163q35 55 84 148h111q57 -108 84 -148q58 -83 131 -163h-142l-129 202l-127 -202h-143z" />
<glyph unicode="&#xdc;" horiz-adv-x="1310" d="M133 1477h252q-12 -169 -12 -310l-2 -706q0 -111 18 -178q59 -179 313 -179q109 0 188.5 39t119.5 111q28 52 28 172v741q0 62 -2 117q-5 115 -14 193h158q-13 -180 -13 -310v-735q0 -230 -125.5 -339t-392.5 -109q-240 0 -371 116.5t-131 331.5l5 735q0 5 -3 43t-4 74 q-2 36 -4 72.5t-3.5 61.5t-4.5 59zM399 1616q0 55 29.5 80.5t91.5 25.5q48 0 75.5 -28t27.5 -78q0 -107 -111 -107q-113 0 -113 107zM776 1616q0 106 123 106q48 0 75 -27.5t27 -78.5q0 -107 -110 -107q-115 0 -115 107z" />
<glyph unicode="&#xdf;" horiz-adv-x="1120" d="M135 0l2 35q10 143 10 274v768q0 105 37 178q47 105 166.5 170.5t265.5 65.5q164 0 262.5 -82t98.5 -219q0 -232 -279 -320q179 -34 274 -157.5t95 -321.5q0 -185 -99 -297t-263 -112q-59 0 -99 10.5t-86 38.5v166q33 -42 66 -61t76 -19q86 0 138 80.5t52 212.5 q0 167 -84 269t-246 134v121q123 12 191.5 77.5t68.5 168.5q0 91 -51 143.5t-137 52.5q-112 0 -179 -78.5t-67 -207.5v-1090h-213z" />
<glyph unicode="&#xe0;" horiz-adv-x="1046" d="M76 281q0 104 61 180.5t195 140t368 129.5v37q0 80 -77 134t-189 54q-126 0 -264 -82v166q139 25 268 25q218 0 339.5 -78.5t121.5 -216.5v-532q0 -79 6.5 -127.5t26.5 -110.5h-215q-15 46 -15 78v24q-84 -65 -153 -92.5t-152 -27.5q-141 0 -231 83.5t-90 215.5zM268 299 q0 -84 58 -136t149 -52q64 0 116.5 21t110.5 69v434l-92 -35q-106 -42 -148.5 -63t-88.5 -54q-105 -73 -105 -184zM270 1452h176q53 -113 72 -147q44 -77 103 -164h-107z" />
<glyph unicode="&#xe1;" horiz-adv-x="1046" d="M76 281q0 104 61 180.5t195 140t368 129.5v37q0 80 -77 134t-189 54q-126 0 -264 -82v166q139 25 268 25q218 0 339.5 -78.5t121.5 -216.5v-532q0 -79 6.5 -127.5t26.5 -110.5h-215q-15 46 -15 78v24q-84 -65 -153 -92.5t-152 -27.5q-141 0 -231 83.5t-90 215.5zM268 299 q0 -84 58 -136t149 -52q64 0 116.5 21t110.5 69v434l-92 -35q-106 -42 -148.5 -63t-88.5 -54q-105 -73 -105 -184zM442 1139q36 59 86 161q23 50 56 152h174l-217 -313h-99z" />
<glyph unicode="&#xe2;" horiz-adv-x="1046" d="M76 281q0 104 61 180.5t195 140t368 129.5v37q0 80 -77 134t-189 54q-126 0 -264 -82v166q139 25 268 25q218 0 339.5 -78.5t121.5 -216.5v-532q0 -79 6.5 -127.5t26.5 -110.5h-215q-15 46 -15 78v24q-84 -65 -153 -92.5t-152 -27.5q-141 0 -231 83.5t-90 215.5z M252 1141q75 80 131 164q38 61 84 147h111q55 -104 84 -147q61 -87 131 -164h-142l-129 202l-127 -202h-143zM268 299q0 -84 58 -136t149 -52q64 0 116.5 21t110.5 69v434l-92 -35q-106 -42 -148.5 -63t-88.5 -54q-105 -73 -105 -184z" />
<glyph unicode="&#xe3;" horiz-adv-x="1046" d="M76 281q0 104 61 180.5t195 140t368 129.5v37q0 80 -77 134t-189 54q-126 0 -264 -82v166q139 25 268 25q218 0 339.5 -78.5t121.5 -216.5v-532q0 -79 6.5 -127.5t26.5 -110.5h-215q-15 46 -15 78v24q-84 -65 -153 -92.5t-152 -27.5q-141 0 -231 83.5t-90 215.5z M229 1278q57 29 144 29q35 0 157 -19q91 -16 150 -16q66 0 127 31l6 -127q-67 -33 -135 -33q-43 0 -166 16q-106 19 -152 19q-66 0 -124 -27zM268 299q0 -84 58 -136t149 -52q64 0 116.5 21t110.5 69v434l-92 -35q-106 -42 -148.5 -63t-88.5 -54q-105 -73 -105 -184z" />
<glyph unicode="&#xe4;" horiz-adv-x="1046" d="M76 281q0 104 61 180.5t195 140t368 129.5v37q-5 83 -79 135.5t-189 52.5q-122 0 -262 -82v166q139 25 268 25q216 0 338.5 -78.5t122.5 -216.5v-532q0 -97 8 -152q3 -15 11.5 -41.5t13.5 -44.5h-215q-15 46 -15 78v24q-84 -65 -153 -92.5t-152 -27.5q-141 0 -231 83.5 t-90 215.5zM213 1307q0 53 30 80.5t87 27.5q48 0 77 -29.5t29 -78.5q0 -54 -29.5 -82.5t-82.5 -28.5t-82 28.5t-29 82.5zM268 299q0 -84 58 -136t149 -52q64 0 116.5 21t110.5 69v434q-142 -54 -204 -82q-118 -51 -174 -112.5t-56 -141.5zM592 1307q0 108 119 108 q46 0 75 -29.5t29 -78.5q0 -53 -29 -82t-81 -29q-54 0 -83.5 28.5t-29.5 82.5z" />
<glyph unicode="&#xe5;" horiz-adv-x="1048" d="M78 281q0 154 138.5 253.5t485.5 196.5l-2 37q-1 83 -76 135.5t-190 52.5q-121 0 -264 -82v166q142 25 270 25q216 0 337.5 -78.5t121.5 -216.5v-532q0 -84 10 -152q1 -8 23 -86h-215q-15 46 -15 78q0 2 1.5 10t1.5 14q-84 -65 -154.5 -92.5t-153.5 -27.5 q-141 0 -230 83.5t-89 215.5zM270 299q0 -85 57.5 -136.5t151.5 -51.5q115 0 226 90v434q-148 -55 -207 -82q-118 -51 -173 -112.5t-55 -141.5zM373 1313q0 68 48 117t118 49q66 0 112.5 -49t46.5 -117q0 -66 -48 -114t-115 -48t-114.5 48t-47.5 114zM442 1315 q0 -40 27.5 -67t67.5 -27q36 0 63 27t27 65t-26.5 64t-63.5 26q-39 0 -67 -26t-28 -62z" />
<glyph unicode="&#xe6;" horiz-adv-x="1626" d="M76 283q0 152 151 260t473 186q0 110 -69 169.5t-197 59.5q-133 0 -266 -79v159q184 29 307 29q215 0 324 -106q14 -10 39 -48q76 79 154 115.5t171 36.5q158 0 256.5 -101.5t124.5 -291.5l-622 -254q32 -156 115 -244t200 -88q76 0 137 31.5t125 101.5l68 -80 q-87 -83 -179.5 -121t-205.5 -38q-117 0 -203.5 45t-169.5 149q-118 -101 -217.5 -146.5t-200.5 -45.5q-135 0 -225 86t-90 215zM274 303q0 -83 55.5 -137.5t141.5 -54.5q110 0 229 88v432q-17 -6 -36.5 -14.5t-26.5 -10.5l-125 -49q-116 -42 -177 -108t-61 -146zM897 602 q0 -47 4 -84l361 148q38 15 52.5 32t14.5 45q0 69 -49 134q-59 77 -139 77q-104 0 -174 -100.5t-70 -251.5z" />
<glyph unicode="&#xe7;" horiz-adv-x="894" d="M72 487q0 249 155 412.5t391 163.5q109 0 220 -33v-166q-59 46 -110 66t-112 20q-147 0 -243.5 -124t-96.5 -312q0 -178 87 -291.5t221 -113.5q80 0 143 32q55 24 111 78l59 -92q-95 -77 -180.5 -110t-186.5 -33q-205 0 -331.5 139t-126.5 364zM428 -90q73 37 137 37 q54 0 88.5 -33t34.5 -84q0 -68 -61 -123t-168 -86v62q54 9 85 38t31 70q0 64 -57 64q-46 0 -90 -50v105z" />
<glyph unicode="&#xe8;" horiz-adv-x="983" d="M70 541q0 228 126 376t322 148q166 0 268 -101t125 -290l-622 -254q31 -153 114 -239.5t201 -86.5q142 0 262 129l64 -82q-85 -83 -176 -122t-203 -39q-214 0 -347.5 156t-133.5 405zM238 1452h176q59 -126 71 -147q44 -77 103 -164h-107zM266 602q0 -49 4 -84l385 160 q45 16 45 72q0 38 -28 96q-62 112 -162 112q-107 0 -175.5 -100t-68.5 -256z" />
<glyph unicode="&#xe9;" horiz-adv-x="983" d="M70 541q0 228 126 376t322 148q166 0 268 -101t125 -290l-622 -254q31 -153 114 -239.5t201 -86.5q142 0 262 129l64 -82q-85 -83 -176 -122t-203 -39q-214 0 -347.5 156t-133.5 405zM266 602q0 -49 4 -84l385 160q45 16 45 72q0 38 -28 96q-62 112 -162 112 q-107 0 -175.5 -100t-68.5 -256zM412 1139q36 59 86 161q20 43 55 152h174l-217 -313h-98z" />
<glyph unicode="&#xea;" horiz-adv-x="983" d="M70 541q0 228 126 376t322 148q166 0 268 -101t125 -290l-622 -254q31 -153 114 -239.5t201 -86.5q142 0 262 129l64 -82q-85 -83 -176 -122t-203 -39q-214 0 -347.5 156t-133.5 405zM221 1141q75 80 131 164q38 61 84 147h111q55 -104 84 -147q61 -87 131 -164h-141 l-129 202l-127 -202h-144zM266 602q0 -49 4 -84l385 160q45 16 45 72q0 38 -28 96q-62 112 -162 112q-107 0 -175.5 -100t-68.5 -256z" />
<glyph unicode="&#xeb;" horiz-adv-x="983" d="M70 541q0 228 126 376t322 148q166 0 268 -101t125 -290l-622 -254q31 -153 114 -239.5t201 -86.5q142 0 262 129l64 -82q-85 -83 -176 -122t-203 -39q-214 0 -347.5 156t-133.5 405zM190 1251q0 53 30 81t87 28q48 0 77.5 -30t29.5 -79q0 -53 -30 -81.5t-83 -28.5 t-82 28t-29 82zM266 602q0 -49 4 -84l385 160q45 16 45 72q0 38 -28 96q-62 112 -162 112q-107 0 -175.5 -100t-68.5 -256zM569 1251q0 53 30.5 81t88.5 28q46 0 75.5 -30t29.5 -79q0 -53 -29.5 -81.5t-81.5 -28.5q-54 0 -83.5 28t-29.5 82z" />
<glyph unicode="&#xec;" horiz-adv-x="479" d="M-12 1452h176q53 -113 72 -147q51 -87 102 -164h-107zM125 0q2 28 6 72q0 1 4 59q2 29 2 59l4 119v-2v436q0 11 -4 121q-2 96 -12 176h219v-731q0 -89 2 -116q0 -76 10 -193h-231z" />
<glyph unicode="&#xed;" horiz-adv-x="479" d="M125 0q2 28 6 72q0 1 4 59q2 29 2 59l4 119v-2v436q0 11 -4 121q-2 96 -12 176h219v-731q0 -89 2 -116q0 -76 10 -193h-231zM160 1139q36 59 86 161q20 43 55 152h174l-217 -313h-98z" />
<glyph unicode="&#xee;" horiz-adv-x="479" d="M-31 1141q75 80 131 164q38 61 84 147h111q55 -104 84 -147q61 -87 131 -164h-141l-129 202l-127 -202h-144zM125 0q2 28 6 72q0 1 4 59q2 29 2 59l4 119v-2v436q0 11 -4 121q-2 96 -12 176h219v-731q0 -89 2 -116q0 -76 10 -193h-231z" />
<glyph unicode="&#xef;" horiz-adv-x="479" d="M-61 1251q0 53 29.5 81t86.5 28q48 0 77.5 -30t29.5 -79q0 -53 -30 -81.5t-83 -28.5t-81.5 28t-28.5 82zM125 0q2 28 6 72q0 1 4 59q2 29 2 59l4 119v-2v436q0 11 -4 121q-2 96 -12 176h219v-731q0 -89 2 -116q0 -76 10 -193h-231zM317 1251q0 53 30.5 81t88.5 28 q46 0 75.5 -30t29.5 -79q0 -53 -29.5 -81.5t-81.5 -28.5q-54 0 -83.5 28t-29.5 82z" />
<glyph unicode="&#xf1;" horiz-adv-x="1124" d="M133 0q19 241 19 311v428q0 40 -3.5 112.5t-3.5 78.5q-1 16 -8 110h215v-122q71 72 137.5 104.5t145.5 32.5q153 0 248 -76q51 -39 73.5 -99t22.5 -151v-422q0 -117 12 -307h-229l2 35q3 32 6 84q10 160 10 184v426q0 100 -49.5 148.5t-152.5 48.5q-69 0 -120 -30 t-106 -103v-482q0 -137 2 -180q1 -26 8 -131h-229zM268 1278q57 29 144 29q35 0 157 -19q91 -16 150 -16q66 0 127 31l6 -127q-67 -33 -135 -33q-43 0 -166 16q-106 19 -152 19q-67 0 -125 -27z" />
<glyph unicode="&#xf2;" horiz-adv-x="1040" d="M70 518q0 247 122 394t328 147t329.5 -147t123.5 -394t-123.5 -395t-329.5 -148q-205 0 -327.5 147.5t-122.5 395.5zM266 1452h176q53 -113 72 -147q51 -87 102 -164h-106zM281 518q0 -124 17 -202.5t56 -131.5q28 -41 75 -68.5t91 -27.5t91 27.5t75 68.5q40 55 57 131.5 t17 194.5q0 130 -17 207.5t-57 134.5q-29 41 -75.5 67.5t-90.5 26.5q-46 0 -92 -26.5t-74 -67.5q-40 -57 -56.5 -134t-16.5 -200z" />
<glyph unicode="&#xf3;" horiz-adv-x="1040" d="M70 518q0 247 122 394t328 147t329.5 -147t123.5 -394t-123.5 -395t-329.5 -148q-205 0 -327.5 147.5t-122.5 395.5zM281 518q0 -124 17 -202.5t56 -131.5q28 -41 75 -68.5t91 -27.5t91 27.5t75 68.5q40 55 57 131.5t17 194.5q0 130 -17 207.5t-57 134.5 q-29 41 -75.5 67.5t-90.5 26.5q-46 0 -92 -26.5t-74 -67.5q-40 -57 -56.5 -134t-16.5 -200zM440 1139q36 59 86 161q23 50 56 152h174l-217 -313h-99z" />
<glyph unicode="&#xf4;" horiz-adv-x="1040" d="M70 518q0 247 122 394t328 147t329.5 -147t123.5 -394t-123.5 -395t-329.5 -148q-205 0 -327.5 147.5t-122.5 395.5zM250 1141q75 80 131 164q38 61 84 147h110q55 -104 84 -147q57 -83 132 -164h-142l-129 202l-127 -202h-143zM281 518q0 -124 17 -202.5t56 -131.5 q28 -41 75 -68.5t91 -27.5t91 27.5t75 68.5q40 55 57 131.5t17 194.5q0 130 -17 207.5t-57 134.5q-29 41 -75.5 67.5t-90.5 26.5q-46 0 -92 -26.5t-74 -67.5q-40 -57 -56.5 -134t-16.5 -200z" />
<glyph unicode="&#xf5;" horiz-adv-x="1040" d="M70 518q0 247 122 394t328 147t329.5 -147t123.5 -394t-123.5 -395t-329.5 -148q-205 0 -327.5 147.5t-122.5 395.5zM225 1278q57 29 144 29q35 0 157 -19q91 -16 150 -16q66 0 127 31l6 -127q-67 -33 -135 -33q-43 0 -166 16q-106 19 -152 19q-67 0 -125 -27zM281 518 q0 -124 17 -202.5t56 -131.5q28 -41 75 -68.5t91 -27.5t91 27.5t75 68.5q40 55 57 131.5t17 194.5q0 130 -17 207.5t-57 134.5q-29 41 -75.5 67.5t-90.5 26.5q-46 0 -92 -26.5t-74 -67.5q-40 -57 -56.5 -134t-16.5 -200z" />
<glyph unicode="&#xf6;" horiz-adv-x="1040" d="M70 518q0 247 122 394t328 147t329.5 -147t123.5 -394t-123.5 -395t-329.5 -148q-205 0 -327.5 147.5t-122.5 395.5zM221 1307q0 52 30.5 80t86.5 28q49 0 77.5 -29t28.5 -79q0 -54 -29 -82.5t-83 -28.5q-52 0 -81.5 29t-29.5 82zM281 518q0 -124 17 -202.5t56 -131.5 q28 -41 75 -68.5t91 -27.5t91 27.5t75 68.5q40 55 57 131.5t17 194.5q0 130 -17 207.5t-57 134.5q-29 41 -75.5 67.5t-90.5 26.5q-46 0 -92 -26.5t-74 -67.5q-40 -57 -56.5 -134t-16.5 -200zM600 1307q0 52 31 80t88 28q47 0 75.5 -29.5t28.5 -78.5q0 -54 -28.5 -82.5 t-81.5 -28.5t-83 29t-30 82z" />
<glyph unicode="&#xf7;" horiz-adv-x="1124" d="M88 414v139h948v-139h-948zM446 207q0 49 33 82q38 35 84 35q49 0 82 -33t33 -84q0 -50 -35 -82q-30 -35 -80 -35q-49 0 -84 35q-33 38 -33 82zM446 758q0 49 33 82q34 31 84 34q50 0 80 -34q35 -35 35 -82q0 -50 -35 -82q-30 -35 -80 -35q-49 0 -84 35q-33 33 -33 82z " />
<glyph unicode="&#xf8;" horiz-adv-x="1040" d="M70 522q0 243 122 390t326 147q129 0 232 -66l49 84l82 -8l-68 -123l6 -6l6 -6q148 -142 148 -416q0 -245 -123.5 -394t-325.5 -149q-125 0 -227 60l-45 -82l-82 12l68 115q-43 39 -80 88q-88 130 -88 354zM279 516q0 -77 10 -131q5 -56 10.5 -81t24.5 -68l356 630 q-83 80 -160 80q-43 0 -86 -23.5t-76 -64.5q-79 -101 -79 -342zM371 162q46 -42 78.5 -58t70.5 -16q88 0 158 86q44 57 63 137.5t19 208.5q0 116 -15 187q-10 48 -20 79z" />
<glyph unicode="&#xf9;" horiz-adv-x="1124" d="M133 1044h229l-4 -45q-12 -196 -12 -258v-424q0 -103 49.5 -150.5t155.5 -47.5q69 0 114 27.5t107 103.5v483q0 88 -4 178q0 45 -8 133h231q-18 -184 -18 -311v-428q0 -143 14 -301h-215v125q-130 -139 -289 -139q-64 0 -130 21t-111 55q-97 75 -97 251v418 q0 119 -12 309zM309 1452h176q53 -113 72 -147q51 -87 102 -164h-106z" />
<glyph unicode="&#xfa;" horiz-adv-x="1124" d="M133 1044h229l-4 -45q-12 -196 -12 -258v-424q0 -103 49.5 -150.5t155.5 -47.5q69 0 114 27.5t107 103.5v483q0 88 -4 178q0 45 -8 133h231q-18 -184 -18 -311v-428q0 -143 14 -301h-215v125q-130 -139 -289 -139q-64 0 -130 21t-111 55q-97 75 -97 251v418 q0 119 -12 309zM481 1139q36 59 86 161q23 50 56 152h174l-217 -313h-99z" />
<glyph unicode="&#xfb;" horiz-adv-x="1124" d="M133 1044h229l-4 -45q-12 -196 -12 -258v-424q0 -103 49.5 -150.5t155.5 -47.5q69 0 114 27.5t107 103.5v483q0 88 -4 178q0 45 -8 133h231q-18 -184 -18 -311v-428q0 -143 14 -301h-215v125q-130 -139 -289 -139q-64 0 -130 21t-111 55q-97 75 -97 251v418 q0 119 -12 309zM291 1141q75 80 131 164q38 61 84 147h110q55 -104 84 -147q61 -87 131 -164h-141l-129 202l-127 -202h-143z" />
<glyph unicode="&#xfc;" horiz-adv-x="1136" d="M133 1044h229l-4 -45q-12 -196 -12 -258v-424q0 -103 49.5 -150.5t155.5 -47.5q69 0 114 27.5t107 103.5v483q0 88 -4 178q0 45 -8 133h231q-18 -184 -18 -311v-428q0 -143 14 -301h-215v125q-130 -139 -289 -139q-64 0 -130 21t-111 55q-97 75 -97 251v418 q0 119 -12 309zM256 1307q0 52 31 80t88 28q48 0 77 -29.5t29 -78.5q0 -54 -30 -82.5t-84 -28.5q-52 0 -81.5 29t-29.5 82zM635 1307q0 52 31 80t90 28q46 0 74 -29.5t28 -78.5q0 -54 -28.5 -82.5t-81.5 -28.5t-83 29t-30 82z" />
<glyph unicode="&#xff;" horiz-adv-x="843" d="M-29 -248q56 -45 119 -45q88 0 162 80q37 40 58.5 90t21.5 94q0 49 -41 148q-71 169 -152 405q-76 240 -145 516h217q57 -254 108 -415q48 -168 148 -432q86 246 139 432q47 167 101 415h143q-9 -38 -19.5 -87.5t-18 -82.5t-13.5 -55q-104 -439 -273 -809 q-52 -111 -115.5 -206t-121.5 -148q-81 -68 -205 -68q-54 0 -113 13v155zM121 1251q0 53 30 81t87 28q47 0 76.5 -30t29.5 -79q0 -53 -30 -81.5t-83 -28.5t-81.5 28t-28.5 82zM500 1251q0 109 118 109q46 0 75.5 -30t29.5 -79q0 -53 -29.5 -81.5t-81.5 -28.5q-54 0 -83 28 t-29 82z" />
<glyph unicode="&#x152;" horiz-adv-x="1802" d="M70 733q0 346 165 553t441 207q61 0 98 -6l80 -4q86 -6 117 -6h753v-136l-49 2q-221 13 -284 13h-271v-535h207q110 0 277 19v-156q-203 18 -281 18h-201v-571h330q130 0 250 8l51 4v-143h-862q-38 0 -88 -4l-74 -4q-39 -4 -100 -4q-258 0 -408.5 201t-150.5 544z M307 719q0 -619 352 -619q110 0 193 70q28 25 51 68v997q-84 141 -231 141q-365 0 -365 -657z" />
<glyph unicode="&#x153;" horiz-adv-x="1689" d="M70 530q0 237 127.5 387t330.5 150q110 0 188 -44.5t158 -150.5q138 193 357 193q158 0 255.5 -100.5t125.5 -292.5l-627 -252q37 -159 118.5 -244.5t199.5 -85.5q76 0 138.5 30.5t125.5 98.5l65 -80q-82 -82 -171 -119.5t-201 -37.5q-131 0 -223.5 52.5t-159.5 164.5 q-66 -111 -153.5 -164t-205.5 -53q-204 0 -326 149.5t-122 398.5zM279 530q0 -201 66.5 -316.5t182.5 -115.5q114 0 176 114.5t62 324.5q0 195 -64 307t-176 112q-116 0 -181.5 -113.5t-65.5 -312.5zM965 592q0 -39 6 -76l338 137q90 36 90 88q0 29 -14.5 68t-36.5 70 q-23 35 -60.5 55t-77.5 20q-106 0 -175.5 -102.5t-69.5 -259.5z" />
<glyph unicode="&#x178;" horiz-adv-x="1001" d="M-117 1477h283l37 -74q7 -12 21.5 -38.5t17.5 -31.5q9 -21 26 -49l68 -119l211 -370l221 372q17 28 33.5 56t25 42.5t11.5 18.5q2 4 65 119q31 64 35 74h178l-26 -39q-8 -14 -39 -59.5t-62 -94.5q-17 -26 -34.5 -53.5t-27 -43t-14.5 -22.5l-305 -510v-344q0 -161 10 -276 l3 -35h-246q10 173 10 311v336l-301 518q-7 15 -74 119q-14 22 -50 77.5t-50 76.5zM199 1759q0 53 29.5 81t86.5 28q48 0 77.5 -30t29.5 -79q0 -53 -30 -81.5t-83 -28.5t-81.5 28t-28.5 82zM578 1759q0 109 118 109q46 0 75.5 -30t29.5 -79q0 -53 -29.5 -81.5t-81.5 -28.5 q-54 0 -83 28t-29 82z" />
<glyph unicode="&#x2c6;" horiz-adv-x="557" d="M8 1141q75 80 131 164q38 61 84 147h111q55 -104 84 -147q61 -87 131 -164h-141l-129 202l-127 -202h-144z" />
<glyph unicode="&#x2dc;" horiz-adv-x="567" d="M-10 1278q57 29 143 29q36 0 158 -19q91 -16 149 -16q66 0 127 31l6 -127q-67 -33 -135 -33q-43 0 -166 16q-106 19 -151 19q-67 0 -125 -27z" />
<glyph unicode="&#x2000;" horiz-adv-x="980" />
<glyph unicode="&#x2001;" horiz-adv-x="1960" />
<glyph unicode="&#x2002;" horiz-adv-x="980" />
<glyph unicode="&#x2003;" horiz-adv-x="1960" />
<glyph unicode="&#x2004;" horiz-adv-x="653" />
<glyph unicode="&#x2005;" horiz-adv-x="490" />
<glyph unicode="&#x2006;" horiz-adv-x="326" />
<glyph unicode="&#x2007;" horiz-adv-x="326" />
<glyph unicode="&#x2008;" horiz-adv-x="245" />
<glyph unicode="&#x2009;" horiz-adv-x="392" />
<glyph unicode="&#x200a;" horiz-adv-x="108" />
<glyph unicode="&#x2010;" horiz-adv-x="595" d="M49 469v174h500v-174h-500z" />
<glyph unicode="&#x2011;" horiz-adv-x="595" d="M49 469v174h500v-174h-500z" />
<glyph unicode="&#x2012;" horiz-adv-x="595" d="M49 469v174h500v-174h-500z" />
<glyph unicode="&#x2013;" d="M92 694v156h889v-156h-889z" />
<glyph unicode="&#x2014;" horiz-adv-x="2039" d="M61 678v151h1917v-151h-1917z" />
<glyph unicode="&#x2018;" horiz-adv-x="339" d="M59 1001q31 156 70 261q38 98 104 215h111q-44 -106 -59 -173.5t-15 -154.5q0 -61 15 -148h-226z" />
<glyph unicode="&#x2019;" horiz-adv-x="339" d="M-2 1001q44 107 59 172.5t15 153.5q0 60 -17 150h226q-32 -159 -68 -258q-39 -102 -104 -218h-111z" />
<glyph unicode="&#x201a;" horiz-adv-x="339" d="M-2 -254q44 106 59 171t15 153q0 58 -17 145h226q-31 -156 -68 -258q-37 -93 -104 -211h-111z" />
<glyph unicode="&#x201c;" horiz-adv-x="616" d="M59 1001q31 156 70 261q38 98 104 215h111q-44 -106 -59 -173.5t-15 -154.5q0 -61 15 -148h-226zM334 1001q18 96 31.5 147.5t37.5 113.5q26 67 101 215h114q-45 -105 -60 -172.5t-15 -155.5q0 -50 14 -148h-223z" />
<glyph unicode="&#x201d;" horiz-adv-x="616" d="M-2 1001q44 107 59 172.5t15 153.5q0 60 -17 150h226q-32 -159 -68 -258q-39 -102 -104 -218h-111zM272 1001q44 110 59 175t15 151q0 65 -16 150h225q-32 -159 -68 -258q-39 -102 -104 -218h-111z" />
<glyph unicode="&#x201e;" horiz-adv-x="616" d="M-2 -254q44 106 59 171t15 153q0 58 -17 145h226q-31 -156 -68 -258q-37 -93 -104 -211h-111zM272 -254q44 108 59 173t15 151q0 63 -16 145h225q-31 -156 -68 -258q-37 -93 -104 -211h-111z" />
<glyph unicode="&#x2022;" horiz-adv-x="380" d="M59 549q0 61 34.5 89t105.5 28q57 0 90 -29t33 -80q0 -64 -32 -94.5t-100 -30.5q-131 0 -131 117z" />
<glyph unicode="&#x2026;" horiz-adv-x="2039" d="M213 109q0 54 37.5 91.5t91.5 37.5t91.5 -37.5t37.5 -91.5t-37.5 -91.5t-91.5 -37.5t-91.5 37.5t-37.5 91.5zM895 109q0 54 37.5 91.5t91.5 37.5t91.5 -37.5t37.5 -91.5t-37.5 -91.5t-91.5 -37.5t-91.5 37.5t-37.5 91.5zM1577 109q0 54 37.5 91.5t91.5 37.5t91.5 -37.5 t37.5 -91.5t-37.5 -91.5t-91.5 -37.5t-91.5 37.5t-37.5 91.5z" />
<glyph unicode="&#x202f;" horiz-adv-x="392" />
<glyph unicode="&#x2039;" horiz-adv-x="481" d="M59 496v84q47 64 88 131q70 107 129 215h146l-205 -383l201 -387h-146q-71 131 -127 215q-70 104 -86 125z" />
<glyph unicode="&#x203a;" horiz-adv-x="481" d="M59 156l205 387l-205 383h144q55 -103 125 -211q15 -25 43.5 -65.5t48.5 -71.5v-80q-23 -33 -49.5 -71t-36.5 -52q-63 -100 -131 -219h-144z" />
<glyph unicode="&#x205f;" horiz-adv-x="490" />
<glyph unicode="&#x2122;" horiz-adv-x="1492" d="M96 1372v103h445v-103h-166v-635h-115v635h-164zM516 737l141 756h62l205 -467q29 -67 32 -129q3 68 33 129l205 467h61l142 -756h-115l-74 430l-4 23l-2 18q-3 39 2 72q-1 -2 -20 -72l-10 -26l-3 -11l-194 -450h-41l-195 450l-4 15l-8 24q-13 35 -20 70q5 -33 2 -72 l-2 -18l-4 -23l-74 -430h-115z" />
<glyph unicode="&#xe000;" horiz-adv-x="1044" d="M0 0v1044h1044v-1044h-1044z" />
<glyph unicode="&#xfb01;" d="M160 1020l110 110l265 -262l268 271l110 -111l-268 -270l260 -262l-110 -111l-260 262l-261 -262l-110 111l258 262z" />
<glyph unicode="&#xfb02;" horiz-adv-x="788" d="M37 1174v153l377 150h114v-1379q99 0 152 4q21 0 117 7v-109h-758v111q113 -11 213 -11h51v1213q-116 -43 -186 -84q-5 -3 -80 -55z" />
</font>
</defs>
</svg>
