<?xml version="1.0" standalone="no"?>
<!DOCTYPE svg PUBLIC "-//W3C//DTD SVG 1.1//EN" "http://www.w3.org/Graphics/SVG/1.1/DTD/svg11.dtd" >
<svg xmlns="http://www.w3.org/2000/svg">
<metadata></metadata>
<defs>
<font id="cleargothic-lightregular" horiz-adv-x="1046" >
<font-face units-per-em="2048" ascent="1638" descent="-410" />
<missing-glyph horiz-adv-x="593" />
<glyph horiz-adv-x="2048" />
<glyph horiz-adv-x="2048" />
<glyph unicode="&#xd;" horiz-adv-x="2048" />
<glyph unicode=" " horiz-adv-x="593" d="M0 0z" />
<glyph unicode="!" horiz-adv-x="380" d="M98 88q0 54 28.5 78t90.5 24q48 0 74 -26t26 -76q0 -104 -108 -104q-111 0 -111 104zM111 1477h198l-47 -1078h-106z" />
<glyph unicode="&#x22;" horiz-adv-x="544" d="M-4 1020q45 106 60.5 168.5t15.5 144.5q0 28 -17 144h187q-29 -150 -66 -248q-30 -88 -94 -209h-86zM238 1020q43 104 57 166.5t14 146.5q0 65 -14 144h188q-33 -159 -67 -248q-30 -88 -94 -209h-84z" />
<glyph unicode="#" horiz-adv-x="1294" d="M109 475l18 86h235l74 352h-235l18 86h236l92 439h86l-92 -439h227l92 439h86l-92 -439h236l-19 -86h-235l-76 -352h237l-18 -86h-236l-92 -438h-86l92 438h-227l-92 -438h-86l92 438h-235zM449 561h225l76 352h-228z" />
<glyph unicode="$" horiz-adv-x="980" d="M76 80v158q24 -19 49 -41q65 -49 151 -88q65 -25 166 -25h17l2 600l-72 41l-135 76q-77 43 -126.5 128.5t-49.5 174.5q0 103 60 192t163 140q68 32 160 41v155h76v-149h16q78 0 125.5 -9.5t128.5 -41.5l37 -13v-157q-13 9 -31 22.5t-31 22.5q-74 48 -120.5 64.5 t-124.5 19.5v-539l65 -35q76 -40 135 -78q88 -57 135.5 -142.5t47.5 -186.5q0 -118 -61.5 -217t-168.5 -156q-34 -20 -66.5 -28.5t-95.5 -16.5v-182h-69v178q-72 0 -97 2q-102 6 -247 71l-35 19h-4zM256 1130q0 -152 205 -239v491q-82 -23 -127 -65q-33 -31 -55.5 -84.5 t-22.5 -102.5zM530 100q65 10 104.5 38.5t76.5 90.5q45 73 45 146q0 83 -63 159t-163 113v-547z" />
<glyph unicode="%" horiz-adv-x="1591" d="M35 1096q0 169 96.5 276t249.5 107q149 0 248.5 -109.5t99.5 -275.5t-99.5 -275.5t-248.5 -109.5q-100 0 -182.5 52t-122.5 140q-41 87 -41 195zM186 1094q0 -135 54.5 -219t140.5 -84q61 0 107.5 44.5t66.5 122.5q18 64 18 134q0 140 -53.5 223.5t-142.5 83.5 q-83 0 -137 -86t-54 -219zM420 0l649 1477h102l-649 -1477h-102zM868 385q0 167 96.5 275t247.5 108t250 -109.5t99 -275.5t-99.5 -276.5t-249.5 -110.5q-98 0 -181.5 53t-121.5 139q-41 90 -41 197zM1018 383q0 -135 54 -220t140 -85q62 0 110.5 45t68.5 123q14 63 14 135 q0 140 -53 222.5t-142 82.5q-84 0 -138 -86t-54 -217z" />
<glyph unicode="&#x26;" horiz-adv-x="1236" d="M76 438q0 226 205 373q40 28 77.5 45.5t106.5 40.5q-51 105 -115 250q-61 140 -98 229v94h704v-137q-69 23 -111.5 28t-154.5 5h-233q117 -279 219 -483q100 -202 262 -490q66 131 104 238q42 125 62 239l92 -28q-34 -162 -74 -269q-25 -73 -48 -125.5t-73 -146.5 q70 -110 142 -207q15 -20 76 -94h-236l-104 156q-156 -172 -365 -172q-186 0 -312 131t-126 323zM244 475q0 -148 94 -254t227 -106q135 0 258 123q-92 157 -166 290q-24 43 -44 82t-49 94.5t-54 102.5q-266 -102 -266 -332z" />
<glyph unicode="'" horiz-adv-x="303" d="M-4 1020q45 106 60.5 168.5t15.5 144.5q0 28 -17 144h187q-29 -150 -66 -248q-30 -88 -94 -209h-86z" />
<glyph unicode="(" horiz-adv-x="552" d="M76 680v78q0 290 65.5 472.5t206.5 280.5q58 40 164 58v-115q-69 -13 -102 -37q-100 -79 -117 -192q-38 -194 -47 -545v-70q0 -288 37 -438t127 -227q29 -26 102 -37v-119q-67 15 -99.5 26t-64.5 33q-135 89 -180 218q-74 219 -92 614z" />
<glyph unicode=")" horiz-adv-x="548" d="M39 -94q66 13 102 41q96 74 121 198q34 187 43 533v65q0 290 -36.5 440.5t-127.5 227.5q-36 28 -102 41v115q63 -10 97.5 -22t70.5 -34q138 -90 180 -225q35 -106 61.5 -315.5t26.5 -366.5q0 -293 -65 -477.5t-203 -282.5q-50 -33 -168 -55v117z" />
<glyph unicode="*" horiz-adv-x="718" d="M63 1083l238 103l-235 98l61 100l201 -151l-29 244h123l-31 -244l203 151l61 -100l-235 -98l237 -103l-59 -102l-209 139l31 -248h-121l33 248l-211 -139z" />
<glyph unicode="+" d="M78 686v137h377v385h139v-383h377v-139h-377v-375h-139v375h-377z" />
<glyph unicode="," horiz-adv-x="303" d="M-4 -262q45 105 60.5 167t15.5 144q0 23 -17 139h187q-30 -152 -66 -245q-31 -88 -94 -205h-86z" />
<glyph unicode="-" horiz-adv-x="583" d="M51 479v148h486v-148h-486z" />
<glyph unicode="." horiz-adv-x="319" d="M37 88q0 53 29.5 77.5t91.5 24.5q98 0 98 -102q0 -104 -111 -104q-108 0 -108 104z" />
<glyph unicode="/" horiz-adv-x="679" d="M4 0l576 1477h96l-578 -1477h-94z" />
<glyph unicode="0" d="M88 727q0 341 122 550.5t320 209.5q123 0 221 -97t152.5 -270.5t54.5 -392.5q0 -220 -54.5 -389t-154.5 -261.5t-231 -92.5q-124 0 -222.5 94.5t-153 264.5t-54.5 384zM276 729q0 -308 64.5 -480.5t181.5 -172.5q118 0 183 171.5t65 479.5q0 316 -65 492t-183 176 q-117 0 -181.5 -176t-64.5 -490z" />
<glyph unicode="1" d="M174 0v94q112 -10 213 -10h57v1249q-125 -44 -192 -86q-36 -22 -78 -53v139l356 144h95v-1393q104 0 151 2q30 1 123 8v-94h-725z" />
<glyph unicode="2" d="M113 0v162q95 95 202 215q162 194 263 356q81 125 117 222t36 188q0 107 -63.5 173t-167.5 66q-171 0 -314 -178l-26 176q204 113 387 113q168 0 270.5 -95t102.5 -253q0 -102 -49 -210.5t-156 -244.5q-132 -168 -299 -344q-59 -65 -193 -194l486 2q98 0 145 8 q29 6 68 20v-182h-809z" />
<glyph unicode="3" d="M115 59v195q47 -50 67 -66q47 -43 118.5 -69.5t137.5 -26.5q136 0 223 91.5t87 234.5t-87.5 227t-240.5 84q-56 0 -103 -12v110q52 -6 89 -6q141 0 224 80.5t83 216.5q0 124 -74.5 197.5t-200.5 73.5q-78 0 -149 -27q-63 -23 -137 -82v160q164 53 305 53 q195 0 315.5 -100.5t120.5 -262.5q0 -131 -81 -220.5t-239 -133.5q169 -14 265 -110t96 -252q0 -188 -136.5 -307t-351.5 -119q-94 0 -166.5 15t-164.5 56z" />
<glyph unicode="4" d="M78 350v137q154 264 246 453q60 127 102.5 229.5t120.5 307.5h180l-534 -1004h391v637l174 260v-897h43q58 0 104 10v-149q-36 14 -96 14h-49l-2 -29v-24q0 -101 14 -295h-203q12 165 15 317v33h-506z" />
<glyph unicode="5" d="M137 43v176q41 -41 70 -59q105 -78 237 -78q140 0 227 111.5t87 293.5q0 145 -70.5 232.5t-187.5 87.5q-67 0 -124.5 -24.5t-119.5 -80.5l-86 31l16 744h570q48 0 82 14v-174h-562v-494q78 50 144.5 70t146.5 20q157 0 264 -123t107 -305q0 -218 -144.5 -356.5 t-373.5 -138.5q-77 0 -139 11.5t-144 41.5z" />
<glyph unicode="6" d="M113 584q0 266 77.5 473t218 321.5t320.5 114.5q38 0 113 -14v-136q-80 48 -152 48q-89 0 -155 -60q-103 -94 -170 -254q-27 -72 -39 -130.5t-19 -160.5q67 79 135.5 114.5t153.5 35.5q146 0 239 -123.5t93 -318.5q0 -223 -112.5 -363.5t-289.5 -140.5 q-192 0 -302.5 159.5t-110.5 434.5zM299 592q0 -241 61 -375.5t170 -134.5q100 0 156.5 110t56.5 302q0 163 -50 248t-148 85q-142 0 -244 -159q-2 -33 -2 -76z" />
<glyph unicode="7" d="M117 1288v189h780v-115l-182 -541q-158 -473 -205 -659q-16 -61 -39 -162h-231q92 171 116 221q40 88 248 645l168 451h-383q-121 0 -180 -10q-43 -6 -92 -19z" />
<glyph unicode="8" d="M104 375q0 254 289 391q-123 81 -179 167t-56 191q0 152 110 259.5t267 107.5q147 0 244.5 -92t97.5 -230q0 -112 -64 -199.5t-184 -140.5q172 -103 243.5 -199.5t71.5 -226.5q0 -180 -123 -297.5t-311 -117.5q-173 0 -289.5 111.5t-116.5 275.5zM240 397q0 -137 82 -227 t208 -90q114 0 186 77t72 199q0 98 -48.5 164.5t-174.5 143.5q-77 45 -116 65q-113 -79 -161 -155.5t-48 -176.5zM315 1174q0 -88 54 -157.5t186 -148.5q209 105 209 297q0 109 -61 174.5t-162 65.5q-98 0 -162 -65t-64 -166z" />
<glyph unicode="9" d="M111 981q0 220 114 366t287 146q188 0 301 -174t113 -463q0 -255 -78 -452.5t-219 -306.5t-324 -109q-54 0 -110 10v133q80 -45 153 -45q91 0 160 59q98 88 158 246q29 72 41.5 130.5t21.5 164.5q-63 -77 -131 -110t-156 -33q-152 0 -241.5 118t-89.5 320zM289 973 q0 -160 51.5 -242t151.5 -82q76 0 134 38t109 120q2 37 2 78q0 235 -61.5 373.5t-167.5 138.5q-101 0 -160 -114.5t-59 -309.5z" />
<glyph unicode=":" horiz-adv-x="346" d="M63 88q0 53 29.5 77.5t91.5 24.5q99 0 99 -102q0 -104 -109 -104q-111 0 -111 104zM63 737q0 105 121 105q47 0 73 -27.5t26 -77.5q0 -102 -109 -102q-111 0 -111 102z" />
<glyph unicode=";" horiz-adv-x="354" d="M29 -262q45 104 60 166t15 145q0 48 -16 139h186q-14 -73 -20 -101.5t-17 -66.5t-26 -77q-34 -91 -96 -205h-86zM72 737q0 105 118 105q48 0 75.5 -28t27.5 -77q0 -102 -111 -102q-110 0 -110 102z" />
<glyph unicode="&#x3c;" horiz-adv-x="466" d="M61 508v61q53 72 95 140q67 108 123 211h127l-199 -377l194 -379h-127q-67 126 -118 207q-24 38 -95 137z" />
<glyph unicode="=" d="M80 573v138h887v-138h-887zM80 836v143h887v-143h-887z" />
<glyph unicode="&#x3e;" horiz-adv-x="464" d="M61 920h127q60 -110 119 -207q32 -54 96 -144v-61q-61 -82 -92 -133q-58 -93 -123 -211h-125l199 379z" />
<glyph unicode="?" horiz-adv-x="808" d="M-2 1380q90 59 171.5 85t180.5 26q190 0 311 -107t121 -274q0 -162 -107 -264.5t-288 -112.5v-334h-106v463q23 -4 55 -4q120 0 193 73t73 193q0 116 -80 194.5t-198 78.5q-155 0 -236 -137zM223 88q0 53 29.5 77.5t91.5 24.5q98 0 98 -102q0 -104 -108 -104 q-111 0 -111 104z" />
<glyph unicode="@" horiz-adv-x="1708" d="M123 643q-17 154 20.5 298.5t124.5 262.5q94 128 224 205t272 92q164 18 305.5 -32.5t236.5 -152t137.5 -252t16.5 -323.5q-31 -195 -124.5 -312.5t-207.5 -133.5q-90 -13 -151.5 42t-52.5 136q-11 -41 -41 -74q-117 -132 -271 -61q-76 35 -117 127.5t-32 234.5 q4 48 8 74q20 129 72.5 228t124.5 153q102 72 193 55t138 -110q11 -21 11 -23l18 127l98 -2l-79 -446l-29 -185q-9 -77 6 -129q10 -38 46 -56.5t73 -4.5q30 11 56 32.5t65 69.5q76 90 102 277q21 157 -17.5 289.5t-121 218.5t-204.5 125t-263 18q-106 -16 -201 -70.5 t-164 -137t-114.5 -189t-52 -226.5t23.5 -249q27 -105 80 -192.5t122 -148.5t154.5 -98.5t175 -46t185.5 13t184 74.5q59 39 102 74q65 56 115 115l47 -54q-6 -7 -16.5 -19t-19.5 -22t-17 -18q-238 -244 -537 -244q-181 0 -334 83.5t-251 237t-119 349.5zM571 594 q6 -82 27 -129q29 -62 95.5 -73t119.5 38q30 28 49.5 64.5t44.5 107.5q25 72 41 164l4 22l13 84q12 79 2.5 123.5t-43.5 83.5q-30 33 -70 42.5t-84 -8.5t-80 -64q-42 -54 -80 -166q-16 -52 -24 -103q-18 -106 -15 -186z" />
<glyph unicode="A" horiz-adv-x="1208" d="M-4 0q7 19 16.5 41t14.5 33q73 173 94 243l387 1098l-6 62h184l401 -1158q58 -159 111 -284l14 -35h-229q-49 199 -90 319l-64 177h-532l-68 -179q-31 -82 -84 -284l-6 -33h-143zM328 592h471l-232 682z" />
<glyph unicode="B" horiz-adv-x="1179" d="M143 0l2 33q13 159 13 284v840q0 141 -15 320h463q78 0 166 -15q129 -28 207 -119t78 -213q0 -138 -96 -228.5t-269 -113.5q209 -23 317.5 -119t108.5 -259q0 -128 -76.5 -232t-203.5 -147q-88 -31 -213 -31h-482zM332 100h260q91 0 156 19q86 31 136 111t50 186 q0 317 -391 317h-211v-633zM332 829h172q187 0 282 73t95 214q0 96 -48 162t-133 88q-69 16 -159 16h-209v-553z" />
<glyph unicode="C" horiz-adv-x="1173" d="M76 729q0 222 87.5 396t246 271t360.5 97q88 0 158 -15.5t157 -54.5v-186q-75 83 -150.5 119.5t-172.5 36.5q-229 0 -360.5 -174t-131.5 -480q0 -296 131.5 -476.5t348.5 -180.5q92 0 176.5 38t177.5 120l61 -70q-52 -44 -84 -66q-175 -120 -372 -120q-184 0 -328.5 95 t-224.5 264.5t-80 385.5z" />
<glyph unicode="D" horiz-adv-x="1253" d="M143 0q15 166 15 317v840q0 132 -11 285l-2 35l375 -2q324 0 491 -187t167 -549q0 -231 -81 -406.5t-229 -266.5q-119 -66 -317 -66h-408zM334 104h239q214 0 316 162t102 500q0 424 -237 565q-79 45 -238 45h-182v-1272z" />
<glyph unicode="E" horiz-adv-x="1034" d="M143 0q15 178 15 319v838q0 145 -13 289l-2 31h807v-117q-195 14 -338 14h-280v-563h219q138 0 278 14v-133q-170 19 -278 19h-217v-605h344q34 0 186 5q13 1 33.5 1.5t40 1.5t43.5 3v-117h-838z" />
<glyph unicode="F" horiz-adv-x="937" d="M143 0l2 35q11 172 11 284v838q0 159 -11 285v35h805v-115q-247 14 -327 14h-291v-569h229q107 0 277 18v-135q-170 21 -281 21h-225v-392q0 -144 6 -282l2 -37h-197z" />
<glyph unicode="G" horiz-adv-x="1333" d="M76 711q0 169 52 314t144.5 247.5t223.5 160.5t284 58q95 0 176.5 -18.5t184.5 -61.5v-194q-29 39 -49 59q-62 56 -148 89.5t-174 33.5q-236 0 -368 -177t-132 -495q0 -319 125 -487t361 -168q88 0 142.5 20t111.5 72v278q0 31 -1 70t-1 55q-1 13 -4.5 72.5t-4.5 89.5 l-4 31h203l-2 -39q0 -5 -1 -16t-1 -19q-1 -12 -3.5 -52.5t-4.5 -66.5q-2 -43 -2 -100v-70q0 -42 2 -75q3 -27 10 -119q1 -6 2.5 -29t3.5 -43q-47 -33 -82 -53q-181 -96 -385 -96q-300 0 -479.5 198.5t-179.5 530.5z" />
<glyph unicode="H" horiz-adv-x="1318" d="M143 0q15 161 15 319v838q0 145 -15 320h203q-3 -57 -6 -74q-6 -135 -6 -246v-338h651v338v127q-1 23 -2.5 52.5t-4 70.5t-3.5 70h201q-13 -190 -13 -320v-838q0 -151 13 -319h-203q12 164 12 319v394h-651v-394q0 -65 2 -126q3 -102 10 -156l2 -37h-205z" />
<glyph unicode="I" horiz-adv-x="489" d="M143 1477h201l-4 -29q0 -31 -2 -47q-4 -96 -4 -246v-836q0 -71 2 -126q3 -99 8 -156l2 -37h-201l2 37q9 126 9 282v838q0 130 -13 320z" />
<glyph unicode="J" horiz-adv-x="571" d="M-23 35v166q66 -90 152 -90q40 0 67 24t33 64q7 21 7 86v872q0 25 -3 127q-3 56 -5.5 109t-4.5 84h205l-2 -37q-12 -129 -12 -281v-905q0 -134 -60.5 -203t-177.5 -69q-90 0 -199 53z" />
<glyph unicode="K" horiz-adv-x="1181" d="M143 0q19 188 19 317v840q0 141 -19 320h211q-16 -203 -16 -320v-381l315 383q29 36 66.5 84.5t46.5 59.5l78 100l53 74h170q-12 -13 -27 -28.5t-24 -25t-17 -18.5q-58 -62 -108 -119q-91 -106 -107 -127l-153 -186l373 -654q32 -58 77 -126q44 -74 101 -156l26 -37h-245 q-22 50 -35 74q-68 136 -129 245l-289 496l-170 -199v-299v-124q5 -57 12 -193h-209z" />
<glyph unicode="L" horiz-adv-x="927" d="M143 0l2 37q13 204 13 282v838q0 139 -15 320h205q-4 -37 -4 -74q-5 -32 -8 -119q-1 -31 -2 -61.5t-1.5 -45.5t-0.5 -20v-1053h319q99 0 299 13v-117h-807z" />
<glyph unicode="M" horiz-adv-x="1687" d="M88 0l4 33q23 185 27 286l51 838q6 111 6 229q0 9 -1 28.5t-1 27.5v35h201l475 -1092l459 1092h202v-37q0 -163 9 -283l49 -838q3 -28 10 -126l12 -119l8 -74h-200v43q0 120 -8 276l-60 949l-469 -1106h-106l-480 1098l-55 -941q-6 -126 -6 -282v-37h-127z" />
<glyph unicode="N" horiz-adv-x="1312" d="M143 0q1 12 2 36.5t2 37.5q9 126 9 245v838q0 165 -11 320h164l746 -1198v880q0 50 -11 281l-2 37h129l-4 -37q-8 -149 -8 -154q-2 -53 -2 -127v-840v-126q1 -27 5.5 -96t6.5 -97h-143l-770 1235v-916q0 -107 12 -319h-125z" />
<glyph unicode="O" horiz-adv-x="1316" d="M76 737q0 367 149 561.5t432 194.5q284 0 434 -194.5t150 -561.5q0 -366 -150 -559.5t-434 -193.5q-283 0 -432 193.5t-149 559.5zM268 737q0 -663 389 -663q196 0 293 165t97 500q0 664 -390 664q-389 0 -389 -666z" />
<glyph unicode="P" horiz-adv-x="1044" d="M143 0q17 185 17 317v840q0 137 -17 320h340q86 0 183 -11q184 -23 292.5 -132.5t108.5 -270.5q0 -118 -56 -208.5t-159 -143.5q-76 -38 -160.5 -53t-222.5 -15h-133v-324q0 -166 16 -319h-209zM336 745h127q110 0 175 13t116 43q62 40 98.5 110.5t36.5 151.5 q0 111 -67 192.5t-179 106.5q-67 12 -160 12h-147v-629z" />
<glyph unicode="Q" horiz-adv-x="1314" d="M76 737q0 367 149.5 561.5t433.5 194.5q283 0 432.5 -194.5t149.5 -561.5q0 -179 -31.5 -305.5t-101.5 -232.5q-46 -66 -83 -96.5t-103 -55.5q125 -35 213 -35q13 0 46.5 2.5t49.5 3.5l-68 -151q-233 65 -262 72q-166 37 -211 45q-104 3 -167.5 14.5t-125.5 40.5 q-103 47 -186 160q-70 100 -102.5 229t-32.5 309zM268 760q0 -134 21.5 -265.5t56.5 -218.5q38 -94 122 -148t191 -54q388 0 388 665q0 664 -388 664q-192 0 -291.5 -163.5t-99.5 -479.5z" />
<glyph unicode="R" horiz-adv-x="1153" d="M143 0q17 199 17 317v840q0 147 -15 320h439q232 0 364.5 -104t132.5 -286q0 -174 -122.5 -279t-350.5 -128l289 -363l104 -124l17 -23l80 -96q47 -61 59 -74h-246l-12 23q-25 34 -35 51q-82 116 -84 119q-39 48 -100 126l-277 345h-69v-347q0 -132 10 -282l2 -35h-203z M334 760h47q178 0 297 35q94 26 152.5 103.5t58.5 174.5q0 154 -102.5 226.5t-319.5 72.5h-133v-612z" />
<glyph unicode="S" horiz-adv-x="983" d="M76 80v158q99 -84 182 -121t176 -37q137 0 226.5 83t89.5 210q0 90 -59.5 160.5t-190.5 134.5l-111 57q-75 35 -135 76q-176 116 -176 303q0 106 61 195t167.5 140.5t234.5 51.5q125 0 299 -70l4 -2v-157q-93 73 -164.5 103t-149.5 30q-120 0 -199 -73t-79 -183 q0 -82 44.5 -135t162.5 -113l143 -74q86 -42 135 -78q185 -124 185 -329q0 -189 -136 -307.5t-352 -118.5q-86 0 -167 21t-185 73z" />
<glyph unicode="T" horiz-adv-x="813" d="M-76 1356v121h965v-121q-157 16 -242 16h-153v-1053q0 -12 4 -126q1 -22 3 -56.5t3.5 -59t3.5 -40.5l2 -37h-207l2 39q4 37 10 154q4 63 4 126v1053h-153q-85 0 -242 -16z" />
<glyph unicode="U" horiz-adv-x="1314" d="M143 1477h211q-14 -169 -14 -318l-2 -702q0 -109 20 -191q60 -190 336 -190q241 0 332 157q33 61 33 181v743q0 135 -17 320h132l-5 -35q-10 -245 -10 -285v-729q0 -233 -119.5 -338.5t-384.5 -105.5q-241 0 -367 113.5t-126 330.5v731q0 10 -0.5 26t-1.5 44.5t-2 54.5 q-7 123 -15 193z" />
<glyph unicode="V" horiz-adv-x="1007" d="M-84 1477h219l8 -35q43 -156 90 -285l324 -915l311 915q59 187 95 320h129l-17 -37q-46 -122 -102 -283l-365 -1069l35 -88h-188l-412 1155q-24 70 -96 246l-19 45z" />
<glyph unicode="W" horiz-adv-x="1730" d="M-70 1477h209l8 -39q34 -161 70 -283l246 -879l350 1108l-27 93h187l364 -1207l254 885q42 151 80 322h129l-26 -76q-11 -40 -23 -68q-31 -95 -55 -178l-303 -1061l26 -94h-186l-369 1206l-354 -1112l27 -94h-185l-319 1155q-4 20 -10 39.5t-14 44.5t-13 41 q-4 12 -17.5 55t-21.5 64z" />
<glyph unicode="X" horiz-adv-x="1200" d="M-8 0l26 33q167 227 205 284l291 428l-252 410q-66 105 -82 127l-80 119l-51 76h240q23 -53 37 -76q82 -150 141 -246l156 -254l170 256q31 46 81 127q59 92 115 193h160l-55 -76q-107 -146 -174 -244l-236 -346l303 -494q76 -124 221 -317h-237l-19 33q-48 87 -168 284 l-211 334l-223 -334q-97 -141 -180 -282l-23 -35h-155z" />
<glyph unicode="Y" horiz-adv-x="964" d="M-117 1477h234q4 -7 9 -17.5t7 -13.5q5 -10 26 -48.5t36 -66.5q7 -11 15.5 -27t10.5 -20l76 -127l225 -377l234 377q58 97 73 127q13 22 31 54.5t41 74.5t35 64h145l-24 -39q-71 -102 -105 -154q-31 -45 -80 -127l-301 -489v-349q0 -153 11 -319h-201q10 245 10 319v340 l-299 498q-21 41 -80 127q-78 114 -102 156z" />
<glyph unicode="Z" horiz-adv-x="1077" d="M-2 0l803 1370h-463q-107 0 -168 -10q-13 -2 -96 -23v140h983l-803 -1373h455q105 0 204 13q36 3 131 22v-139h-1046z" />
<glyph unicode="[" horiz-adv-x="471" d="M139 -213q15 530 15 893q0 364 -15 889h291v-129h-125q-10 -452 -10 -760q0 -332 12 -762h121v-131h-289z" />
<glyph unicode="\" horiz-adv-x="632" d="M109 1475h110l258 -1475h-110z" />
<glyph unicode="]" horiz-adv-x="473" d="M43 -80h123q10 445 10 756q0 316 -10 766h-121v127l289 4q-12 -506 -12 -895q0 -364 10 -889h-289v131z" />
<glyph unicode="^" horiz-adv-x="528" d="M8 1141q81 85 127 162q36 55 82 149h94q51 -105 82 -149q46 -72 127 -162h-129l-127 202l-127 -202h-129z" />
<glyph unicode="_" horiz-adv-x="1032" d="M109 0h737v-51h-737v51z" />
<glyph unicode="`" horiz-adv-x="509" d="M8 1452h158q35 -81 74 -149q38 -67 104 -162h-96z" />
<glyph unicode="a" horiz-adv-x="1036" d="M82 281q0 120 87 204t284 158q36 13 75 26t94 31t95 31v39q0 90 -80 147.5t-205 57.5q-120 0 -256 -74v139q141 23 254 23q211 0 329 -74.5t118 -206.5v-563q0 -88 8 -137q8 -38 22 -82h-174q-16 44 -16 82v27q-91 -68 -163 -96.5t-151 -28.5q-141 0 -231 83.5t-90 213.5 zM242 297q0 -92 62 -148.5t163 -56.5q71 0 130.5 24t121.5 79v456q-159 -56 -223 -82q-131 -56 -192.5 -121.5t-61.5 -150.5z" />
<glyph unicode="b" horiz-adv-x="1060" d="M129 33q27 88 29 108q10 68 10 150v864q0 120 -10 322h170v-551q24 27 49 49q46 40 109.5 63t125.5 23q172 0 272.5 -136.5t100.5 -371.5q0 -253 -124 -411t-324 -158q-88 0 -146 22t-119 80l-88 -90zM328 326q0 -125 56 -194t157 -69q129 0 200.5 126.5t71.5 353.5 q0 199 -64 304t-184 105q-66 0 -133 -41q-31 -16 -50.5 -33.5t-53.5 -56.5v-495z" />
<glyph unicode="c" horiz-adv-x="874" d="M76 489q0 246 151 409t381 163q102 0 213 -33v-143q-58 45 -108.5 63.5t-112.5 18.5q-155 0 -257.5 -130t-102.5 -327q0 -183 92 -301.5t233 -118.5q65 0 146 31q30 14 50.5 29t61.5 51l49 -74q-94 -76 -173 -107.5t-177 -31.5q-202 0 -324 137.5t-122 363.5z" />
<glyph unicode="d" horiz-adv-x="1042" d="M76 489q0 160 58 291t159 206t223 75q62 0 111 -20t102 -66v182q0 64 -2 125q-1 37 -3.5 87.5t-2.5 68.5l-2 39h170v-1160q0 -151 8 -284l2 -33h-166v98q-68 -62 -131 -90t-135 -28q-170 0 -280.5 143.5t-110.5 365.5zM242 512q0 -203 70.5 -316.5t199.5 -113.5 q125 0 217 133v657q-48 52 -93.5 75.5t-100.5 23.5q-130 0 -211.5 -128t-81.5 -331z" />
<glyph unicode="e" horiz-adv-x="964" d="M76 541q0 226 123 373t313 147q155 0 254 -97.5t125 -277.5l-639 -258q32 -165 120 -257.5t214 -92.5q150 0 272 131l51 -72q-85 -82 -170.5 -118.5t-189.5 -36.5q-209 0 -341 156.5t-132 402.5zM229 596q0 -5 9 -88l434 178q41 18 41 72q0 50 -33 100q-73 121 -178 121 q-117 0 -195 -109.5t-78 -273.5z" />
<glyph unicode="f" horiz-adv-x="542" d="M6 967v73h160v56q0 171 107 285t268 114q76 0 166 -33v-145q-45 45 -87 64.5t-96 19.5q-94 0 -153.5 -59.5t-59.5 -151.5q0 -61 25 -150h295v-73h-305v-650q0 -145 12 -317h-186l2 33q12 153 12 284v650h-160z" />
<glyph unicode="g" d="M76 489q0 249 125 410.5t317 161.5q75 0 136.5 -22t131.5 -74l72 75l53 -36q-3 -11 -7.5 -30t-6.5 -24q-9 -35 -11.5 -81t-2.5 -205q0 -28 1 -85t1 -85l6 -410l8 -172q0 -158 -109 -246t-303 -88q-223 0 -405 105l31 120q91 -74 173.5 -107.5t174.5 -33.5q132 0 205 66 t73 186q0 51 -10 201q-65 -66 -129.5 -96.5t-142.5 -30.5q-170 0 -275.5 139t-105.5 362zM238 496q0 -194 67.5 -304t188.5 -110q58 0 114 29.5t84 74.5q15 18 35 62v631q-54 52 -104 75t-109 23q-126 0 -201 -130.5t-75 -350.5z" />
<glyph unicode="h" horiz-adv-x="1112" d="M143 0q15 139 15 193l4 126l-2 -10v848q0 129 -13 285l-4 35h176v-559q76 75 151 109t163 34q103 0 182.5 -47.5t114.5 -130.5q24 -53 24 -152v-412v-126q3 -66 13 -193h-185l2 37q5 98 7 156q4 110 4 126v410q0 70 -15 100q-23 54 -79.5 87.5t-122.5 33.5 q-142 0 -259 -123v-510q0 -113 11 -317h-187z" />
<glyph unicode="i" horiz-adv-x="475" d="M129 1300q0 53 28.5 77t92.5 24q46 0 72 -27t26 -74q0 -54 -25.5 -78t-82.5 -24t-84 24t-27 78zM141 0l2 35q17 130 17 282l2 422v4q0 74 -2 123q-5 93 -17 174h179v-723q0 -95 2 -124q0 -15 6 -162l4 -31h-193z" />
<glyph unicode="j" horiz-adv-x="479" d="M-86 -246q62 -76 141 -76q107 0 107 170v879q0 146 -21 313h178v-1144q0 -109 -22 -177q-23 -69 -81.5 -105t-143.5 -36t-158 37v139zM131 1300q0 53 28.5 77t92.5 24q47 0 72.5 -26.5t25.5 -74.5q0 -54 -25.5 -78t-82.5 -24q-59 0 -85 24t-26 78z" />
<glyph unicode="k" horiz-adv-x="991" d="M143 0q9 73 9 74q10 140 10 243v840q0 142 -19 320h179v-803q61 84 98 124.5t94 86.5q111 92 192.5 130t198.5 50v-119q-72 -8 -110.5 -16.5t-83.5 -28.5q-43 -20 -74.5 -41.5t-85.5 -66.5l264 -476q12 -27 76 -127q47 -78 125 -190h-201l-385 676q-11 -13 -25 -28.5 t-22.5 -26t-17.5 -23.5q-35 -55 -43 -72l-3 -209v-8q0 -133 15 -309h-191z" />
<glyph unicode="l" horiz-adv-x="468" d="M143 0l2 35q13 153 13 282v840q0 90 -2 127q0 66 -11 160l-2 33h174v-1160q0 -92 9 -317h-183z" />
<glyph unicode="m" horiz-adv-x="1601" d="M143 0q15 170 15 317v408q0 145 -13 281l-2 34h174v-90q30 26 56 41q107 70 227 70q80 0 145 -31.5t105 -89.5q16 13 37 30t24 19q112 72 240 72q96 0 169.5 -44t104.5 -120q21 -49 21 -141v-439q0 -150 10 -317h-182l2 37q10 153 10 282v424q0 70 -10 95 q-17 51 -67 81.5t-113 30.5q-61 0 -110.5 -20t-108.5 -66v-547q0 -37 1 -75t1 -49q0 -13 6 -160l4 -33h-184q14 167 14 317v469q0 57 -12 84q-19 38 -63.5 61t-100.5 23q-106 0 -226 -86v-551q0 -153 11 -317h-185z" />
<glyph unicode="n" horiz-adv-x="1116" d="M143 0q19 204 19 311v428q0 79 -4 193q-2 25 -11 108h177v-135q71 79 137.5 113.5t148.5 34.5q170 0 258 -83.5t88 -240.5v-422q0 -105 17 -307h-191q17 249 17 301v430q0 120 -58 164q-27 23 -74.5 37t-93.5 14q-76 0 -132.5 -33.5t-118.5 -113.5v-488q0 -88 4 -182 q5 -98 8 -129h-191z" />
<glyph unicode="o" horiz-adv-x="1028" d="M76 518q0 245 119.5 391t318.5 146t318.5 -146t119.5 -391q0 -246 -119.5 -393.5t-318.5 -147.5t-318.5 147.5t-119.5 393.5zM246 518q0 -126 19.5 -206.5t62.5 -141.5q35 -46 85 -73t101 -27q50 0 102 28t84 72q43 62 62.5 141t19.5 197q0 133 -19 214t-63 140 q-35 47 -85 74t-101 27q-52 0 -102 -27.5t-84 -73.5q-44 -62 -63 -140t-19 -204z" />
<glyph unicode="p" horiz-adv-x="1044" d="M143 1040h168l4 -92q64 61 124.5 87t138.5 26q175 0 285 -141t110 -367q0 -157 -56 -286t-154.5 -203t-219.5 -74q-67 0 -119 18.5t-105 63.5v-160l3 -125l2 -119l2 -39l2 -39h-183l2 33q13 163 13 289v813q0 146 -17 315zM319 184q42 -56 87.5 -80t107.5 -24 q134 0 213.5 125.5t79.5 341.5q0 188 -73 304t-193 116q-133 0 -222 -140v-643z" />
<glyph unicode="q" horiz-adv-x="1077" d="M76 485q0 255 128.5 417.5t330.5 162.5q83 0 140.5 -23.5t117.5 -80.5l88 86l53 -31q-26 -74 -29 -94q-8 -44 -8 -127v-895q0 -70 2 -125q0 -72 4 -142v-30h-184q2 7 8 51q3 42 6 121q4 122 4 125v221q-78 -75 -143 -107t-141 -32q-173 0 -275 135.5t-102 367.5zM248 502 q0 -191 67 -300.5t183 -109.5q124 0 239 133v516q0 110 -58 178t-153 68q-129 0 -203.5 -130.5t-74.5 -354.5z" />
<glyph unicode="r" horiz-adv-x="610" d="M143 1040h166q21 -62 21 -112v-33q40 89 103.5 127.5t170.5 38.5h14v-150q-44 9 -73 9q-98 0 -155.5 -65.5t-57.5 -176.5v-361v-124q0 -1 3 -67t5 -93l4 -33h-184q12 178 12 317v494q0 96 -8 143q-2 31 -21 86z" />
<glyph unicode="s" horiz-adv-x="841" d="M61 61l2 146q88 -64 156 -94q96 -35 168 -35q97 0 166.5 56t69.5 134q0 57 -36.5 96t-121.5 74l-76 33q-79 35 -135 64q-166 82 -166 229q0 124 109 209.5t266 85.5q115 0 254 -41l2 -152q-78 51 -127 66q-79 29 -152 29q-85 0 -136.5 -44t-51.5 -116q0 -55 42.5 -96.5 t139.5 -79.5l86 -39q142 -55 201 -121.5t59 -169.5q0 -138 -108 -222.5t-285 -84.5q-100 0 -199 24q-69 22 -127 49z" />
<glyph unicode="t" horiz-adv-x="524" d="M-8 961v79h172v25l-2 127q0 73 -6 190h166v-342h217v-79h-215v-699q0 -96 24 -137t82 -41q63 0 125 53v-114q-76 -35 -162 -35q-229 0 -229 235v738h-172z" />
<glyph unicode="u" horiz-adv-x="1116" d="M143 1044h191l-4 -40q-13 -230 -13 -261v-428q0 -113 55.5 -164t176.5 -51q76 0 128 31t116 115v487q0 57 -5 185q0 31 -6 126h191q-21 -188 -21 -311v-428q0 -86 4 -192q1 -20 11 -109h-174v135q-67 -76 -137.5 -110.5t-157.5 -34.5q-65 0 -131 21t-113 57 q-96 71 -96 245v420q0 137 -15 307z" />
<glyph unicode="v" horiz-adv-x="880" d="M2 1040h180q48 -186 127 -444q56 -172 160 -440q119 280 174 446q64 204 123 438h113q-70 -263 -150 -497q-74 -220 -207 -543h-145q-131 299 -217 545q-72 202 -158 495z" />
<glyph unicode="w" horiz-adv-x="1359" d="M2 1040h180q41 -177 101 -393q58 -200 143 -450l219 843h135l219 -845q96 274 136 415q61 220 110 430h113q-59 -249 -131 -489q-39 -130 -75 -230t-120 -321h-135l-213 803l-217 -803h-133q-127 344 -191 547q-66 208 -141 493z" />
<glyph unicode="x" horiz-adv-x="890" d="M12 0l92 133q7 13 38.5 56.5t54.5 78.5q77 109 88 129l92 127l-316 516h187l225 -376l66 96q17 27 64.5 98t60.5 92l65 90h121q-112 -154 -158 -223q-81 -115 -162 -239l181 -302l166 -276h-195l-252 436l-76 -112q-63 -98 -73 -113q-63 -96 -68 -105l-70 -106h-131z" />
<glyph unicode="y" horiz-adv-x="827" d="M-27 -276q29 -25 53 -35.5t58 -10.5q88 0 166 84q90 99 90 207q0 48 -41 140q-77 178 -154 411q-74 228 -147 520h172q64 -269 121 -446q51 -169 164 -453q104 290 149 453q45 147 111 446h112q-30 -148 -51 -223q-111 -462 -272 -811q-51 -113 -114 -209.5t-120 -148.5 q-79 -66 -188 -66q-44 0 -109 12v130z" />
<glyph unicode="z" horiz-adv-x="882" d="M47 0l574 958h-285q-96 0 -152 -12q-56 -14 -114 -45v139h780l-574 -952l281 2q111 3 182 21q35 8 97 45v-156h-789z" />
<glyph unicode="{" horiz-adv-x="661" d="M109 737q56 3 90 43t34 103v690q0 61 40 94t116 33h115v-64h-23q-74 0 -97.5 -25t-23.5 -102v-616q0 -63 -38 -106.5t-97 -49.5q59 -6 97 -49t38 -106v-617q0 -78 23 -102.5t98 -24.5h23v-63h-115q-76 0 -116 33t-40 94v690q0 97 -77 133q-16 8 -47 12z" />
<glyph unicode="|" horiz-adv-x="354" d="M109 0v1475h110v-1475h-110z" />
<glyph unicode="}" horiz-adv-x="661" d="M109 -162h22q74 0 97.5 25t23.5 102v617q0 63 37 106t96 49q-59 6 -96 49.5t-37 106.5v616q0 77 -23.5 102t-97.5 25h-22v64h114q76 0 115 -33t39 -94v-690q0 -62 35.5 -102.5t91.5 -43.5q-33 -4 -47 -12q-80 -36 -80 -133v-690q0 -61 -39 -94t-115 -33h-114v63z" />
<glyph unicode="~" horiz-adv-x="714" d="M8 1604v141q37 17 65 22t74 5q75 0 220 -33q129 -29 217 -29q58 0 123 23v-142q-77 -30 -144 -30q-35 0 -72.5 6t-154.5 32q-141 27 -197 27q-54 0 -131 -22z" />
<glyph unicode="&#xa0;" horiz-adv-x="1024" d="M0 0z" />
<glyph unicode="&#xa1;" horiz-adv-x="380" d="M98 1386q0 52 28.5 76.5t90.5 24.5q48 0 75 -26t27 -75q0 -104 -110 -104q-111 0 -111 104zM106 -2l50 1077h106l43 -1077h-199z" />
<glyph unicode="&#xa2;" horiz-adv-x="874" d="M76 492q0 170 80 308t221 210q47 23 112 37v153h82l-2 -143q25 4 52 4q89 0 200 -33v-143q-118 90 -215 90q-7 0 -39 -4v-877q46 5 78 10q60 12 95 31t83 66l49 -74q-40 -34 -61 -47q-64 -45 -125 -68q-49 -15 -119 -22v-166h-78v164q-87 7 -153 35q-126 60 -193 181.5 t-67 287.5zM244 522q0 -247 157 -364q26 -24 86 -45v833q-129 -79 -186 -179t-57 -245z" />
<glyph unicode="&#xa3;" horiz-adv-x="946" d="M78 655v84h158q-158 232 -158 404q0 160 109 255t292 95q95 0 199 -39q19 -6 158 -63l-27 -187q-138 180 -322 180q-98 0 -160.5 -63.5t-62.5 -161.5q0 -45 17.5 -110t42.5 -117l84 -160l14 -33h348v-82h-315q67 -143 67 -239q0 -173 -198 -312q51 -2 110 -2 q292 0 387 25q27 5 88 39l-28 -168h-801v98q132 2 213.5 74.5t81.5 189.5q0 68 -53 193q-26 60 -50 100h-194z" />
<glyph unicode="&#xa4;" horiz-adv-x="1011" d="M109 438l133 133q-57 72 -60 166q0 91 58 168l-131 125l14 17l12 16l15 14l16 15l133 -129q72 57 166 57q99 0 172 -55l129 129q9 -6 18 -15q25 -22 43 -49l-133 -125q54 -75 53.5 -168t-55.5 -168l133 -133l-14 -14l-12 -12l-19 -17l-16 -14l-129 133 q-73 -57 -167.5 -57t-168.5 57l-133 -131q-34 23 -57 57zM274 737q0 -79 56.5 -135.5t134.5 -56.5q80 0 137 57q56 56 56 135t-56 135q-58 58 -137 58q-78 0 -134.5 -57t-56.5 -136z" />
<glyph unicode="&#xa5;" horiz-adv-x="1323" d="M61 1477h236q3 -7 8 -17.5t6 -13.5q9 -15 66 -115q11 -22 26 -47l72 -127l227 -377l232 377q39 62 76 127q43 72 106 193h146l-27 -39q-12 -17 -100 -154q-54 -77 -82 -127l-207 -340h299v-108h-369l-26 -41l-2 -47h397v-109h-400l5 -195q0 -75 10 -280l2 -37h-201 q1 14 2 38t2 38q0 15 4 117q2 59 2 118v8l-2 189h-389v113h391v38l-30 50h-361v108h295l-203 340q-86 144 -184 283z" />
<glyph unicode="&#xa7;" horiz-adv-x="1124" d="M72 551q0 190 211 348q-81 44 -113.5 101.5t-32.5 152.5q0 154 118 250t308 96q205 0 325.5 -113.5t125.5 -308.5h-162q-6 141 -87 224t-216 83q-103 0 -167.5 -57.5t-64.5 -148.5q0 -69 30.5 -109t117.5 -86l338 -180q244 -127 244 -348q0 -135 -95 -244 q-25 -28 -48 -46.5t-68 -45.5q12 -5 23 -12t24.5 -16.5t17.5 -12.5q38 -29 60 -85.5t22 -123.5q0 -171 -121.5 -274t-324.5 -103q-419 0 -443 434l162 -2q4 -148 81 -231.5t208 -83.5q111 0 187.5 67t76.5 166q0 61 -28 99.5t-95 74.5l-369 191q-119 63 -182 151.5 t-63 192.5zM233 578q0 -60 34.5 -111.5t97.5 -83.5l354 -184q83 44 126.5 102.5t43.5 124.5q0 125 -172 219l-316 170q-168 -112 -168 -237z" />
<glyph unicode="&#xa8;" horiz-adv-x="438" d="M-63 1239q0 100 106 100q43 0 67.5 -27t24.5 -73q0 -98 -100 -98q-47 0 -72.5 25.5t-25.5 72.5zM301 1239q0 100 109 100q43 0 67.5 -27t24.5 -73q0 -47 -26 -72.5t-73 -25.5q-102 0 -102 98z" />
<glyph unicode="&#xa9;" horiz-adv-x="1908" d="M119 739q0 155 60.5 296.5t163 244t244 163t296.5 60.5t296.5 -60.5t244 -163t163 -244t60.5 -296.5t-60.5 -296.5t-163 -244t-244 -163t-296.5 -60.5t-296.5 60.5t-244 163t-163 244t-60.5 296.5zM209 739q0 -136 52 -262t147 -223q129 -130 302 -176t346 0t302 176 q130 132 176 308t0 352.5t-176 308.5q-129 131 -302 177.5t-346 0t-302 -177.5q-95 -97 -147 -223t-52 -261zM396.5 740.5q2.5 89.5 35.5 177.5q63 174 221 263.5t351 57.5q138 -24 245 -117l-53 -73q-87 77 -197 98q-117 22 -223.5 -15.5t-178.5 -124.5t-91 -204 q-17 -110 14 -208t103 -169q101 -100 244.5 -114.5t271.5 63.5q35 24 55 41l53 -74q-140 -119 -329 -125q-89 -2 -171.5 24t-146.5 73t-111.5 114.5t-71 145t-21 167z" />
<glyph unicode="&#xaa;" horiz-adv-x="983" d="M115 1073q-12 71 0 141q18 96 76 166t138.5 99t164.5 12q122 -26 182 -135l10 -19l6 -12v150h109v-662h-111v160q0 -11 -6 -17q-26 -65 -85.5 -107t-134 -50t-155.5 22q-77 32 -127 97t-67 155zM131 610v101h670v-101h-670zM221 1147q0 -17 4 -49q21 -106 103 -162 q61 -41 131.5 -41t130.5 43q78 58 98 156q16 87 -16 159q-9 21 -21 39q-40 63 -105.5 91t-134 13.5t-118.5 -67.5q-52 -55 -68 -137q-4 -28 -4 -45z" />
<glyph unicode="&#xab;" horiz-adv-x="735" d="M61 508v61q53 72 95 140q67 108 123 211h127l-199 -377l194 -379h-127q-67 126 -118 207q-24 38 -95 137zM330 508v61q46 65 92 140q79 127 123 211h127l-199 -377l195 -379h-125q-51 97 -121 207q-24 38 -92 137z" />
<glyph unicode="&#xac;" horiz-adv-x="1245" d="M109 737v111h933v-406h-98v295h-835z" />
<glyph unicode="&#xad;" horiz-adv-x="583" d="M51 479v148h486v-148h-486z" />
<glyph unicode="&#xae;" horiz-adv-x="1908" d="M119 739q0 155 60.5 296.5t163 244t244 163t296.5 60.5t296.5 -60.5t244 -163t163 -244t60.5 -296.5t-60.5 -296.5t-163 -244t-244 -163t-296.5 -60.5t-296.5 60.5t-244 163t-163 244t-60.5 296.5zM209 739q0 -136 52 -262t147 -223q129 -130 302 -176t346 0t302 176 q130 132 176 308t0 352.5t-176 308.5q-129 131 -302 177.5t-346 0t-302 -177.5q-95 -97 -147 -223t-52 -261zM655 254v989h209q84 0 131 -13t86 -46q69 -57 84 -148q23 -129 -40.5 -216t-186.5 -101q-12 -2 -37 -2l318 -463h-123l-336 500v-500h-105zM760 782h84 q108 0 164.5 48t58.5 137q2 90 -52 139t-155 49h-100v-373z" />
<glyph unicode="&#xaf;" horiz-adv-x="577" d="M-8 1157v129h588v-129h-588z" />
<glyph unicode="&#xb1;" horiz-adv-x="1216" d="M90 39v139h946v-139h-946zM90 539v139h404v250h139v-250h403v-139h-403v-250h-139v250h-404z" />
<glyph unicode="&#xb4;" horiz-adv-x="471" d="M166 1139q48 77 84 159q17 33 57 152h158l-213 -311h-86z" />
<glyph unicode="&#xb5;" horiz-adv-x="1275" d="M150 -285q0 5 0.5 19.5t1.5 43t2 56.5q4 132 4 182q0 117 -2 207q-4 180 -4 195v502h188v-607q0 -143 29 -194q25 -46 102 -49q119 0 195 163q74 161 77 420v267h189v-672q0 -92 18 -135q18 -40 60 -43q41 0 65 43q23 44 23 125v28h43q0 -10 2 -18v-27q0 -114 -49 -178 q-44 -58 -136 -61q-100 0 -155 88q-50 81 -53 264q-47 -182 -125 -266q-77 -83 -199 -86q-88 0 -150 53q-57 54 -81 158q0 -31 -2 -58q0 -136 65 -289q66 -160 66 -188q0 -41 -23 -64q-19 -19 -63 -22q-48 0 -68 35q-17 28 -20 108z" />
<glyph unicode="&#xb6;" horiz-adv-x="1302" d="M109 1092q0 160 110.5 271.5t267.5 111.5h609v-89h-609q-120 0 -204.5 -87.5t-83.5 -211.5q3 -121 87 -204.5t201 -83.5h148v506h90v-1305h-90v711h-148q-157 0 -267.5 111.5t-110.5 269.5zM868 0v1305h90v-1305h-90z" />
<glyph unicode="&#xb7;" horiz-adv-x="346" d="M61 547q0 54 29.5 79t91.5 25q47 0 74 -27.5t27 -76.5q0 -103 -111 -103t-111 103z" />
<glyph unicode="&#xb8;" horiz-adv-x="374" d="M147 -94q79 39 152 39q58 0 94.5 -33.5t36.5 -87.5q0 -75 -67 -137.5t-181 -96.5v64q61 10 95 44t34 81q0 67 -63 67q-51 0 -101 -53v113z" />
<glyph unicode="&#xba;" horiz-adv-x="985" d="M109 1151q0 33 6 68q16 83 63.5 149t114 100t145.5 39.5t158 -30.5q79 -34 131.5 -101t69.5 -157q12 -69 0 -138q-20 -108 -93 -183t-178 -97q-70 -15 -141 0q-105 22 -177.5 97t-92.5 183q-6 35 -6 70zM121 610v101h670v-101h-670zM219 1151q0 -80 35 -139 q39 -67 107.5 -97t141.5 -15t124 71q49 55 61 131q15 105 -31 186q-39 67 -107 97.5t-140.5 15.5t-124.5 -72q-66 -72 -66 -178z" />
<glyph unicode="&#xbb;" horiz-adv-x="733" d="M61 920h127q60 -110 119 -207q32 -54 96 -144v-61q-61 -82 -92 -133q-58 -93 -123 -211h-125l199 379zM330 164l196 379l-196 377h127q77 -146 116 -207q41 -65 95 -144v-61q-35 -50 -90 -133q-81 -136 -121 -211h-127z" />
<glyph unicode="&#xbf;" horiz-adv-x="808" d="M25 367q0 160 107.5 262t287.5 114v334h106v-461q-23 2 -55 2q-120 0 -192 -73t-72 -193q0 -117 79.5 -194.5t196.5 -77.5q157 0 236 137l92 -119q-92 -61 -173 -87.5t-179 -26.5q-191 0 -312.5 107.5t-121.5 275.5zM365 1389q0 104 120 104q47 0 73 -27t26 -77 q0 -103 -111 -103q-108 0 -108 103z" />
<glyph unicode="&#xc0;" horiz-adv-x="1208" d="M-4 0q7 19 16.5 41t14.5 33q73 173 94 243l387 1098l-6 62h184l401 -1158q58 -159 111 -284l14 -35h-229q-49 199 -90 319l-64 177h-532l-68 -179q-31 -82 -84 -284l-6 -33h-143zM328 592h471l-232 682zM356 1960h158q36 -85 74 -150q35 -62 104 -161h-96z" />
<glyph unicode="&#xc1;" horiz-adv-x="1208" d="M-4 0q7 19 16.5 41t14.5 33q73 173 94 243l387 1098l-6 62h184l401 -1158q58 -159 111 -284l14 -35h-229q-49 199 -90 319l-64 177h-532l-68 -179q-31 -82 -84 -284l-6 -33h-143zM328 592h471l-232 682zM535 1647q44 71 83 159q20 39 58 152h158l-213 -311h-86z" />
<glyph unicode="&#xc2;" horiz-adv-x="1208" d="M-4 0q7 19 16.5 41t14.5 33q73 173 94 243l387 1098l-6 62h184l401 -1158q58 -159 111 -284l14 -35h-229q-49 199 -90 319l-64 177h-532l-68 -179q-31 -82 -84 -284l-6 -33h-143zM328 592h471l-232 682zM348 1649q50 53 74.5 84.5t52.5 76.5q35 52 82 150h94 q52 -108 82 -150q44 -69 127 -161h-129l-127 202l-127 -202h-129z" />
<glyph unicode="&#xc3;" horiz-adv-x="1208" d="M-4 0q7 19 16.5 41t14.5 33q73 173 94 243l387 1098l-6 62h184l401 -1158q58 -159 111 -284l14 -35h-229q-49 199 -90 319l-64 177h-532l-68 -179q-31 -82 -84 -284l-6 -33h-143zM317 1769q54 29 140 29q44 0 149 -14q96 -17 152 -17q60 0 121 27l6 -113 q-61 -30 -129 -30q-40 0 -168 20q-94 12 -139 12q-65 0 -125 -24zM328 592h471l-232 682z" />
<glyph unicode="&#xc4;" horiz-adv-x="1208" d="M-4 0q7 19 16.5 41t14.5 33q73 173 94 243l387 1098l-6 62h184l401 -1158q58 -159 111 -284l14 -35h-229q-49 199 -90 319l-64 177h-532l-68 -179q-31 -82 -84 -284l-6 -33h-143zM317 1595q0 99 101 99q100 0 100 -99q0 -96 -100 -96q-101 0 -101 96zM328 592h471 l-232 682zM684 1595q0 99 100 99q99 0 99 -99q0 -96 -99 -96q-100 0 -100 96z" />
<glyph unicode="&#xc5;" horiz-adv-x="1202" d="M-4 0q7 19 16.5 41t14.5 33q73 173 94 243l387 1098l-6 62h184l401 -1158q58 -159 111 -284l14 -35h-229q-49 199 -90 319l-64 177h-532l-68 -179q-31 -82 -84 -284l-6 -33h-143zM328 592h471l-232 682zM428 1673q0 69 49 117.5t119 48.5q67 0 114.5 -48.5t47.5 -117.5 q0 -68 -48.5 -117t-115.5 -49q-69 0 -117.5 49t-48.5 117zM496 1673q0 -41 29 -69.5t69 -28.5t67 28.5t27 69.5q0 39 -27.5 66.5t-66.5 27.5q-40 0 -69 -28t-29 -66z" />
<glyph unicode="&#xc6;" horiz-adv-x="1792" d="M-4 0l24 37l23 37q10 20 72 119q28 44 75 126l623 1086l-4 72h903v-113q-190 12 -340 12h-282v-563h221q153 0 280 12v-127q-175 15 -278 15h-223v-607h348q88 0 299 11v-117h-834l2 35q8 123 8 282v179h-501l-109 -177q-80 -135 -164 -319h-143zM467 592h446v784z" />
<glyph unicode="&#xc7;" horiz-adv-x="1173" d="M76 729q0 222 87.5 396t246 271t360.5 97q88 0 158 -15.5t157 -54.5v-186q-75 83 -150.5 119.5t-172.5 36.5q-229 0 -360.5 -174t-131.5 -480q0 -296 131.5 -476.5t348.5 -180.5q92 0 176.5 38t177.5 120l61 -70q-52 -44 -84 -66q-175 -120 -372 -120q-184 0 -328.5 95 t-224.5 264.5t-80 385.5zM608 -94q77 39 152 39q58 0 94.5 -33.5t36.5 -87.5q0 -75 -67 -137.5t-181 -96.5v64q61 10 95 44t34 81q0 67 -63 67q-51 0 -101 -53v113z" />
<glyph unicode="&#xc8;" horiz-adv-x="1034" d="M143 0q15 178 15 319v838q0 145 -13 289l-2 31h807v-117q-195 14 -338 14h-280v-563h219q138 0 278 14v-133q-170 19 -278 19h-217v-605h344q34 0 186 5q13 1 33.5 1.5t40 1.5t43.5 3v-117h-838zM270 1960h158q36 -85 74 -150q35 -62 104 -161h-96z" />
<glyph unicode="&#xc9;" horiz-adv-x="1034" d="M143 0q15 178 15 319v838q0 145 -13 289l-2 31h807v-117q-195 14 -338 14h-280v-563h219q138 0 278 14v-133q-170 19 -278 19h-217v-605h344q34 0 186 5q13 1 33.5 1.5t40 1.5t43.5 3v-117h-838zM446 1647q48 77 84 159q20 39 58 152h157l-213 -311h-86z" />
<glyph unicode="&#xca;" horiz-adv-x="1034" d="M143 0q15 178 15 319v838q0 145 -13 289l-2 31h807v-117q-195 14 -338 14h-280v-563h219q138 0 278 14v-133q-170 19 -278 19h-217v-605h344q34 0 186 5q13 1 33.5 1.5t40 1.5t43.5 3v-117h-838zM260 1649q50 53 74.5 84.5t52.5 76.5q35 52 82 150h94q52 -108 82 -150 q44 -69 127 -161h-129l-127 202l-127 -202h-129z" />
<glyph unicode="&#xcb;" horiz-adv-x="1034" d="M143 0q15 178 15 319v838q0 145 -13 289l-2 31h807v-117q-195 14 -338 14h-280v-563h219q138 0 278 14v-133q-170 19 -278 19h-217v-605h344q34 0 186 5q13 1 33.5 1.5t40 1.5t43.5 3v-117h-838zM233 1747q0 100 107 100q43 0 67.5 -27t24.5 -73q0 -98 -100 -98 q-47 0 -73 25.5t-26 72.5zM598 1747q0 100 109 100q43 0 67.5 -27t24.5 -73q0 -47 -26 -72.5t-73 -25.5q-102 0 -102 98z" />
<glyph unicode="&#xcc;" horiz-adv-x="489" d="M-2 1960h158q39 -92 73 -150q31 -54 105 -161h-96zM143 1477h201l-4 -29q0 -31 -2 -47q-4 -96 -4 -246v-836q0 -71 2 -126q3 -99 8 -156l2 -37h-201l2 37q9 126 9 282v838q0 130 -13 320z" />
<glyph unicode="&#xcd;" horiz-adv-x="489" d="M143 1477h201l-4 -29q0 -31 -2 -47q-4 -96 -4 -246v-836q0 -71 2 -126q3 -99 8 -156l2 -37h-201l2 37q9 126 9 282v838q0 130 -13 320zM174 1647q48 77 84 159q17 33 57 152h158l-213 -311h-86z" />
<glyph unicode="&#xce;" horiz-adv-x="489" d="M-10 1649q50 53 74.5 84.5t52.5 76.5q35 52 82 150h94q52 -108 82 -150q44 -69 127 -161h-129l-127 202l-127 -202h-129zM143 1477h201l-4 -29q0 -31 -2 -47q-4 -96 -4 -246v-836q0 -71 2 -126q3 -99 8 -156l2 -37h-201l2 37q9 126 9 282v838q0 130 -13 320z" />
<glyph unicode="&#xcf;" horiz-adv-x="489" d="M-39 1747q0 100 107 100q43 0 67.5 -27t24.5 -73q0 -47 -26 -72.5t-75 -25.5q-47 0 -72.5 25.5t-25.5 72.5zM143 1477h201l-4 -29q0 -31 -2 -47q-4 -96 -4 -246v-836q0 -71 2 -126q3 -99 8 -156l2 -37h-201l2 37q9 126 9 282v838q0 130 -13 320zM326 1747q0 100 108 100 q43 0 67.5 -27t24.5 -73q0 -47 -25.5 -72.5t-72.5 -25.5q-102 0 -102 98z" />
<glyph unicode="&#xd1;" horiz-adv-x="1312" d="M143 0q1 12 2 36.5t2 37.5q9 126 9 245v838q0 165 -11 320h164l746 -1198v880q0 50 -11 281l-2 37h129l-4 -37q-8 -149 -8 -154q-2 -53 -2 -127v-840v-126q1 -27 5.5 -96t6.5 -97h-143l-770 1235v-916q0 -107 12 -319h-125zM369 1769q54 29 139 29q44 0 149 -14 q96 -17 152 -17q60 0 121 27l6 -113q-61 -30 -129 -30q-40 0 -168 20q-95 12 -139 12q-65 0 -125 -24z" />
<glyph unicode="&#xd2;" horiz-adv-x="1316" d="M76 737q0 367 149 561.5t432 194.5q284 0 434 -194.5t150 -561.5q0 -366 -150 -559.5t-434 -193.5q-283 0 -432 193.5t-149 559.5zM268 737q0 -663 389 -663q196 0 293 165t97 500q0 664 -390 664q-389 0 -389 -666zM412 1960h157q36 -85 74 -150q31 -54 105 -161h-97z " />
<glyph unicode="&#xd3;" horiz-adv-x="1316" d="M76 737q0 367 149 561.5t432 194.5q284 0 434 -194.5t150 -561.5q0 -366 -150 -559.5t-434 -193.5q-283 0 -432 193.5t-149 559.5zM268 737q0 -663 389 -663q196 0 293 165t97 500q0 664 -390 664q-389 0 -389 -666zM588 1647q48 77 84 159q17 33 57 152h158l-213 -311 h-86z" />
<glyph unicode="&#xd4;" horiz-adv-x="1316" d="M76 737q0 367 149 561.5t432 194.5q284 0 434 -194.5t150 -561.5q0 -366 -150 -559.5t-434 -193.5q-283 0 -432 193.5t-149 559.5zM268 737q0 -663 389 -663q196 0 293 165t97 500q0 664 -390 664q-389 0 -389 -666zM401 1649q50 53 74.5 84.5t52.5 76.5q35 52 82 150h95 q55 -113 81 -150q44 -69 127 -161h-129l-127 202l-127 -202h-129z" />
<glyph unicode="&#xd5;" horiz-adv-x="1316" d="M76 737q0 367 149 561.5t432 194.5q284 0 434 -194.5t150 -561.5q0 -366 -150 -559.5t-434 -193.5q-283 0 -432 193.5t-149 559.5zM268 737q0 -663 389 -663q196 0 293 165t97 500q0 664 -390 664q-389 0 -389 -666zM371 1769q54 29 139 29q44 0 149 -14q96 -17 152 -17 q60 0 121 27l6 -113q-61 -30 -129 -30q-40 0 -168 20q-95 12 -139 12q-65 0 -125 -24z" />
<glyph unicode="&#xd6;" horiz-adv-x="1316" d="M76 737q0 367 149 561.5t432 194.5q284 0 434 -194.5t150 -561.5q0 -366 -150 -559.5t-434 -193.5q-283 0 -432 193.5t-149 559.5zM268 737q0 -663 389 -663q196 0 293 165t97 500q0 664 -390 664q-389 0 -389 -666zM295 1591q0 99 98 99q101 0 101 -99q0 -50 -24.5 -73 t-76.5 -23q-98 0 -98 96zM811 1591q0 99 98 99q103 0 103 -99q0 -96 -103 -96q-98 0 -98 96z" />
<glyph unicode="&#xd8;" horiz-adv-x="1306" d="M74 721q0 189 37 340q47 196 194.5 311t353.5 115q64 0 110.5 -7.5t123.5 -31.5l31 82l86 -8l-47 -113q43 -26 65 -45q47 -47 86 -117q68 -117 93.5 -225.5t25.5 -276.5q0 -180 -37 -329q-50 -197 -197 -312.5t-350 -115.5q-57 0 -101.5 8t-117.5 31l-27 -72l-86 10 l37 98q-44 26 -80 58q-41 44 -81 106q-64 107 -91.5 220.5t-27.5 273.5zM270 770q0 -254 66 -438q20 -46 82 -133l426 1142q-41 37 -81.5 50.5t-105.5 13.5q-387 0 -387 -635zM475 133q104 -55 197 -55q173 0 269.5 166t96.5 465q0 278 -65 440q-19 44 -78 117z" />
<glyph unicode="&#xd9;" horiz-adv-x="1314" d="M143 1477h211q-14 -169 -14 -318l-2 -702q0 -109 20 -191q60 -190 336 -190q241 0 332 157q33 61 33 181v743q0 135 -17 320h132l-5 -35q-10 -245 -10 -285v-729q0 -233 -119.5 -338.5t-384.5 -105.5q-241 0 -367 113.5t-126 330.5v731q0 10 -0.5 26t-1.5 44.5t-2 54.5 q-7 123 -15 193zM410 1960h157q36 -85 74 -150q35 -62 104 -161h-96z" />
<glyph unicode="&#xda;" horiz-adv-x="1314" d="M143 1477h211q-14 -169 -14 -318l-2 -702q0 -109 20 -191q60 -190 336 -190q241 0 332 157q33 61 33 181v743q0 135 -17 320h132l-5 -35q-10 -245 -10 -285v-729q0 -233 -119.5 -338.5t-384.5 -105.5q-241 0 -367 113.5t-126 330.5v731q0 10 -0.5 26t-1.5 44.5t-2 54.5 q-7 123 -15 193zM588 1647q48 77 84 159q17 33 57 152h158l-213 -311h-86z" />
<glyph unicode="&#xdb;" horiz-adv-x="1314" d="M143 1477h211q-14 -169 -14 -318l-2 -702q0 -109 20 -191q60 -190 336 -190q241 0 332 157q33 61 33 181v743q0 135 -17 320h132l-5 -35q-10 -245 -10 -285v-729q0 -233 -119.5 -338.5t-384.5 -105.5q-241 0 -367 113.5t-126 330.5v731q0 10 -0.5 26t-1.5 44.5t-2 54.5 q-7 123 -15 193zM401 1649q50 53 74.5 84.5t52.5 76.5q35 52 82 150h95q55 -113 81 -150q44 -69 127 -161h-129l-127 202l-127 -202h-129z" />
<glyph unicode="&#xdc;" horiz-adv-x="1314" d="M143 1477h211q-14 -169 -14 -318l-2 -702q0 -109 20 -191q60 -190 336 -190q241 0 332 157q33 61 33 181v743q0 135 -17 320h132l-5 -35q-10 -245 -10 -285v-729q0 -233 -119.5 -338.5t-384.5 -105.5q-241 0 -367 113.5t-126 330.5v731q0 10 -0.5 26t-1.5 44.5t-2 54.5 q-7 123 -15 193zM410 1599q0 97 100 97q98 0 98 -97q0 -51 -23.5 -74.5t-74.5 -23.5t-75.5 23.5t-24.5 74.5zM776 1599q0 97 101 97q100 0 100 -97q0 -51 -24.5 -74.5t-75.5 -23.5q-101 0 -101 98z" />
<glyph unicode="&#xdf;" horiz-adv-x="1103" d="M145 0l2 35q13 125 13 282v768q0 113 33 175q49 101 164 164t249 63q158 0 253 -79.5t95 -211.5q0 -234 -290 -322q186 -35 284.5 -158.5t98.5 -324.5q0 -183 -98.5 -295t-258.5 -112q-58 0 -96 11t-82 40v149q61 -90 154 -90t149.5 86.5t56.5 227.5q0 179 -92.5 285.5 t-265.5 129.5v103q130 10 204.5 80t74.5 180q0 95 -56 151t-153 56q-121 0 -193 -81t-72 -216v-1096h-174z" />
<glyph unicode="&#xe0;" horiz-adv-x="1036" d="M82 281q0 120 87 204t284 158q36 13 75 26t94 31t95 31v39q0 90 -80 147.5t-205 57.5q-120 0 -256 -74v139q141 23 254 23q211 0 329 -74.5t118 -206.5v-563q0 -88 8 -137q8 -38 22 -82h-174q-16 44 -16 82v27q-91 -68 -163 -96.5t-151 -28.5q-141 0 -231 83.5t-90 213.5 zM242 297q0 -92 62 -148.5t163 -56.5q71 0 130.5 24t121.5 79v456q-159 -56 -223 -82q-131 -56 -192.5 -121.5t-61.5 -150.5zM270 1452h158q35 -81 74 -149q38 -67 104 -162h-96z" />
<glyph unicode="&#xe1;" horiz-adv-x="1036" d="M82 281q0 120 87 204t284 158q36 13 75 26t94 31t95 31v39q0 90 -80 147.5t-205 57.5q-120 0 -256 -74v139q141 23 254 23q211 0 329 -74.5t118 -206.5v-563q0 -88 8 -137q8 -38 22 -82h-174q-16 44 -16 82v27q-91 -68 -163 -96.5t-151 -28.5q-141 0 -231 83.5t-90 213.5 zM242 297q0 -92 62 -148.5t163 -56.5q71 0 130.5 24t121.5 79v456q-159 -56 -223 -82q-131 -56 -192.5 -121.5t-61.5 -150.5zM449 1139q44 71 83 159q20 39 58 152h158l-213 -311h-86z" />
<glyph unicode="&#xe2;" horiz-adv-x="1036" d="M82 281q0 120 87 204t284 158q36 13 75 26t94 31t95 31v39q0 90 -80 147.5t-205 57.5q-120 0 -256 -74v139q141 23 254 23q211 0 329 -74.5t118 -206.5v-563q0 -88 8 -137q8 -38 22 -82h-174q-16 44 -16 82v27q-91 -68 -163 -96.5t-151 -28.5q-141 0 -231 83.5t-90 213.5 zM242 297q0 -92 62 -148.5t163 -56.5q71 0 130.5 24t121.5 79v456q-159 -56 -223 -82q-131 -56 -192.5 -121.5t-61.5 -150.5zM262 1141q81 85 127 162q36 55 82 149h94q51 -105 82 -149q46 -72 127 -162h-129l-127 202l-127 -202h-129z" />
<glyph unicode="&#xe3;" horiz-adv-x="1036" d="M82 281q0 120 87 204t284 158q36 13 75 26t94 31t95 31v39q0 90 -80 147.5t-205 57.5q-120 0 -256 -74v139q141 23 254 23q211 0 329 -74.5t118 -206.5v-563q0 -88 8 -137q8 -38 22 -82h-174q-16 44 -16 82v27q-91 -68 -163 -96.5t-151 -28.5q-141 0 -231 83.5t-90 213.5 zM231 1262q52 28 140 28q44 0 149 -14q91 -16 152 -16q62 0 121 26l6 -112q-63 -31 -129 -31q-40 0 -168 20q-102 13 -140 13q-62 0 -124 -25zM242 297q0 -92 62 -148.5t163 -56.5q71 0 130.5 24t121.5 79v456q-159 -56 -223 -82q-131 -56 -192.5 -121.5t-61.5 -150.5z" />
<glyph unicode="&#xe4;" horiz-adv-x="1036" d="M82 281q0 120 87 204t284 158q36 13 75 26t94 31t95 31v39q0 90 -80 147.5t-205 57.5q-120 0 -256 -74v139q141 23 254 23q211 0 329 -74.5t118 -206.5v-563q0 -88 8 -137q8 -38 22 -82h-174q-16 44 -16 82v27q-91 -68 -163 -96.5t-151 -28.5q-141 0 -231 83.5t-90 213.5 zM223 1305q0 98 107 98q42 0 67 -26.5t25 -71.5q0 -49 -25.5 -75t-72.5 -26q-101 0 -101 101zM242 297q0 -92 62 -148.5t163 -56.5q71 0 130.5 24t121.5 79v456q-159 -56 -223 -82q-131 -56 -192.5 -121.5t-61.5 -150.5zM590 1305q0 98 108 98q43 0 68 -27t25 -71 q0 -101 -101 -101q-100 0 -100 101z" />
<glyph unicode="&#xe5;" horiz-adv-x="1038" d="M82 281q0 120 87 204t284 158q36 13 75 26t94 31t95 31v39q0 90 -80 147.5t-205 57.5q-120 0 -256 -74v139q141 23 254 23q211 0 329 -74.5t118 -206.5v-563q0 -88 8 -137q8 -38 22 -82h-174q-16 44 -16 82v27q-91 -68 -163 -96.5t-151 -28.5q-141 0 -231 83.5t-90 213.5 zM242 297q0 -92 62 -148.5t163 -56.5q71 0 130.5 24t121.5 79v456q-159 -56 -223 -82q-131 -56 -192.5 -121.5t-61.5 -150.5zM367 1311q0 66 48.5 114t114.5 48q67 0 113.5 -47.5t46.5 -114.5q0 -66 -47.5 -114t-114.5 -48q-66 0 -113.5 48t-47.5 114zM434 1311 q0 -40 27.5 -69.5t66.5 -29.5q38 0 66.5 29.5t28.5 69.5q0 38 -27 64t-66 26t-67.5 -26t-28.5 -64z" />
<glyph unicode="&#xe6;" horiz-adv-x="1622" d="M82 281q0 148 150 253t485 195v4q0 119 -73.5 182.5t-211.5 63.5q-125 0 -258 -74v133q181 27 299 27q216 0 326 -113q17 -19 39 -53q77 86 155 126t172 40q151 0 246 -98.5t123 -282.5l-637 -258q32 -170 121 -265t215 -95q78 0 141.5 32t126.5 103l60 -66 q-88 -80 -176.5 -116.5t-192.5 -36.5q-118 0 -203 46t-168 156q-122 -106 -222 -154t-202 -48q-135 0 -225 85.5t-90 213.5zM244 299q0 -90 61 -148.5t156 -58.5q122 0 256 98v457q-264 -82 -368.5 -159t-104.5 -189zM874 598q0 -44 7 -90l407 166q38 15 54 33t16 47 q0 63 -58 139q-67 82 -157 82q-114 0 -191.5 -109t-77.5 -268z" />
<glyph unicode="&#xe7;" horiz-adv-x="876" d="M78 489q0 246 151 409t381 163q102 0 213 -33v-143q-58 45 -108.5 63.5t-112.5 18.5q-154 0 -257 -130.5t-103 -326.5q0 -183 92 -301.5t233 -118.5q65 0 146 31q30 14 50.5 29t61.5 51l49 -74q-94 -76 -173 -107.5t-177 -31.5q-202 0 -324 137.5t-122 363.5zM426 -88 q64 35 131 35q53 0 86 -30.5t33 -78.5q0 -66 -59 -122t-162 -87v60q54 9 85 39t31 71q0 62 -57 62q-45 0 -88 -49v100z" />
<glyph unicode="&#xe8;" horiz-adv-x="964" d="M76 541q0 226 123 373t313 147q155 0 254 -97.5t125 -277.5l-639 -258q32 -165 120 -257.5t214 -92.5q150 0 272 131l51 -72q-85 -82 -170.5 -118.5t-189.5 -36.5q-209 0 -341 156.5t-132 402.5zM229 596q0 -5 9 -88l434 178q41 18 41 72q0 50 -33 100q-73 121 -178 121 q-117 0 -195 -109.5t-78 -273.5zM236 1452h157q35 -81 74 -149q38 -67 104 -162h-96z" />
<glyph unicode="&#xe9;" horiz-adv-x="964" d="M76 541q0 226 123 373t313 147q155 0 254 -97.5t125 -277.5l-639 -258q32 -165 120 -257.5t214 -92.5q150 0 272 131l51 -72q-85 -82 -170.5 -118.5t-189.5 -36.5q-209 0 -341 156.5t-132 402.5zM229 596q0 -5 9 -88l434 178q41 18 41 72q0 50 -33 100q-73 121 -178 121 q-117 0 -195 -109.5t-78 -273.5zM412 1139q48 77 84 159q17 33 57 152h158l-213 -311h-86z" />
<glyph unicode="&#xea;" horiz-adv-x="964" d="M76 541q0 226 123 373t313 147q155 0 254 -97.5t125 -277.5l-639 -258q32 -165 120 -257.5t214 -92.5q150 0 272 131l51 -72q-85 -82 -170.5 -118.5t-189.5 -36.5q-209 0 -341 156.5t-132 402.5zM225 1141q81 85 127 162q36 55 82 149h94q51 -105 82 -149 q46 -72 127 -162h-129l-127 202l-127 -202h-129zM229 596q0 -5 9 -88l434 178q41 18 41 72q0 50 -33 100q-73 121 -178 121q-117 0 -195 -109.5t-78 -273.5z" />
<glyph unicode="&#xeb;" horiz-adv-x="964" d="M76 541q0 226 123 373t313 147q155 0 254 -97.5t125 -277.5l-639 -258q32 -165 120 -257.5t214 -92.5q150 0 272 131l51 -72q-85 -82 -170.5 -118.5t-189.5 -36.5q-209 0 -341 156.5t-132 402.5zM199 1239q0 100 106 100q43 0 67.5 -27t24.5 -73q0 -98 -100 -98 q-47 0 -72.5 25.5t-25.5 72.5zM229 596q0 -5 9 -88l434 178q41 18 41 72q0 50 -33 100q-73 121 -178 121q-117 0 -195 -109.5t-78 -273.5zM563 1239q0 100 109 100q43 0 67.5 -27t24.5 -73q0 -47 -25.5 -72.5t-72.5 -25.5q-103 0 -103 98z" />
<glyph unicode="&#xec;" horiz-adv-x="454" d="M-18 1452h157q35 -81 74 -149q38 -67 104 -162h-96zM131 0q7 57 8 74q0 3 0.5 11t1.5 22t2 26q2 27 2 57l7 127v-12v434q0 15 -3 56t-4 71q-2 98 -12 174h178v-723v-124q7 -83 13 -193h-193z" />
<glyph unicode="&#xed;" horiz-adv-x="454" d="M131 0q7 57 8 74q0 3 0.5 11t1.5 22t2 26q2 27 2 57l7 127v-12v434q0 15 -3 56t-4 71q-2 98 -12 174h178v-723v-124q7 -83 13 -193h-193zM158 1139q48 77 84 159q17 33 57 152h158l-213 -311h-86z" />
<glyph unicode="&#xee;" horiz-adv-x="454" d="M-29 1141q81 85 127 162q36 55 82 149h94q51 -105 82 -149q46 -72 127 -162h-129l-127 202l-127 -202h-129zM131 0q7 57 8 74q0 3 0.5 11t1.5 22t2 26q2 27 2 57l7 127v-12v434q0 15 -3 56t-4 71q-2 98 -12 174h178v-723v-124q7 -83 13 -193h-193z" />
<glyph unicode="&#xef;" horiz-adv-x="454" d="M-55 1239q0 100 106 100q43 0 67.5 -27t24.5 -73q0 -98 -100 -98q-47 0 -72.5 25.5t-25.5 72.5zM131 0q7 57 8 74q0 3 0.5 11t1.5 22t2 26q2 27 2 57l7 127v-12v434q0 15 -3 56t-4 71q-2 98 -12 174h178v-723v-124q7 -83 13 -193h-193zM309 1239q0 100 109 100 q43 0 67.5 -27t24.5 -73q0 -47 -25.5 -72.5t-72.5 -25.5q-103 0 -103 98z" />
<glyph unicode="&#xf1;" horiz-adv-x="1116" d="M143 0q19 204 19 311v428q0 79 -4 193q-2 25 -11 108h177v-135q71 79 137.5 113.5t148.5 34.5q170 0 258 -83.5t88 -240.5v-422q0 -105 17 -307h-191q17 249 17 301v430q0 120 -58 164q-27 23 -74.5 37t-93.5 14q-76 0 -132.5 -33.5t-118.5 -113.5v-488q0 -88 4 -182 q5 -98 8 -129h-191zM270 1262q52 28 140 28q44 0 149 -14q91 -16 152 -16t120 26l7 -112q-63 -31 -129 -31q-40 0 -168 20q-102 13 -140 13q-63 0 -125 -25z" />
<glyph unicode="&#xf2;" horiz-adv-x="1028" d="M76 518q0 245 119.5 391t318.5 146t318.5 -146t119.5 -391q0 -246 -119.5 -393.5t-318.5 -147.5t-318.5 147.5t-119.5 393.5zM246 518q0 -126 19.5 -206.5t62.5 -141.5q35 -46 85 -73t101 -27q50 0 102 28t84 72q43 62 62.5 141t19.5 197q0 133 -19 214t-63 140 q-35 47 -85 74t-101 27q-52 0 -102 -27.5t-84 -73.5q-44 -62 -63 -140t-19 -204zM266 1452h158q35 -81 74 -149q38 -67 104 -162h-96z" />
<glyph unicode="&#xf3;" horiz-adv-x="1028" d="M76 518q0 245 119.5 391t318.5 146t318.5 -146t119.5 -391q0 -246 -119.5 -393.5t-318.5 -147.5t-318.5 147.5t-119.5 393.5zM246 518q0 -126 19.5 -206.5t62.5 -141.5q35 -46 85 -73t101 -27q50 0 102 28t84 72q43 62 62.5 141t19.5 197q0 133 -19 214t-63 140 q-35 47 -85 74t-101 27q-52 0 -102 -27.5t-84 -73.5q-44 -62 -63 -140t-19 -204zM444 1139q48 77 84 159q20 39 58 152h157l-213 -311h-86z" />
<glyph unicode="&#xf4;" horiz-adv-x="1028" d="M76 518q0 245 119.5 391t318.5 146t318.5 -146t119.5 -391q0 -246 -119.5 -393.5t-318.5 -147.5t-318.5 147.5t-119.5 393.5zM246 518q0 -126 19.5 -206.5t62.5 -141.5q35 -46 85 -73t101 -27q50 0 102 28t84 72q43 62 62.5 141t19.5 197q0 133 -19 214t-63 140 q-35 47 -85 74t-101 27q-52 0 -102 -27.5t-84 -73.5q-44 -62 -63 -140t-19 -204zM258 1141q81 85 127 162q36 55 82 149h94q51 -105 82 -149q46 -72 127 -162h-129l-127 202l-127 -202h-129z" />
<glyph unicode="&#xf5;" horiz-adv-x="1028" d="M76 518q0 245 119.5 391t318.5 146t318.5 -146t119.5 -391q0 -246 -119.5 -393.5t-318.5 -147.5t-318.5 147.5t-119.5 393.5zM227 1262q52 28 140 28q44 0 149 -14q91 -16 152 -16q62 0 120 26l7 -112q-63 -31 -129 -31q-40 0 -168 20q-102 13 -140 13q-62 0 -125 -25z M246 518q0 -126 19.5 -206.5t62.5 -141.5q35 -46 85 -73t101 -27q50 0 102 28t84 72q43 62 62.5 141t19.5 197q0 133 -19 214t-63 140q-35 47 -85 74t-101 27q-52 0 -102 -27.5t-84 -73.5q-44 -62 -63 -140t-19 -204z" />
<glyph unicode="&#xf6;" horiz-adv-x="1028" d="M76 518q0 245 119.5 391t318.5 146t318.5 -146t119.5 -391q0 -246 -119.5 -393.5t-318.5 -147.5t-318.5 147.5t-119.5 393.5zM233 1305q0 98 105 98q44 0 69 -26.5t25 -71.5q0 -101 -100 -101q-48 0 -73.5 26t-25.5 75zM246 518q0 -126 19.5 -206.5t62.5 -141.5 q35 -46 85 -73t101 -27q50 0 102 28t84 72q43 62 62.5 141t19.5 197q0 133 -19 214t-63 140q-35 47 -85 74t-101 27q-52 0 -102 -27.5t-84 -73.5q-44 -62 -63 -140t-19 -204zM598 1305q0 98 109 98q42 0 67 -26.5t25 -71.5q0 -49 -25.5 -75t-73.5 -26q-102 0 -102 101z" />
<glyph unicode="&#xf7;" horiz-adv-x="1216" d="M88 414v139h948v-139h-948zM446 207q0 49 33 82q38 35 84 35q49 0 82 -33t33 -84q0 -50 -35 -82q-30 -35 -80 -35q-49 0 -84 35q-33 38 -33 82zM446 758q0 49 33 82q34 31 84 34q50 0 80 -34q35 -35 35 -82q0 -50 -35 -82q-30 -35 -80 -35q-49 0 -84 35q-33 33 -33 82z " />
<glyph unicode="&#xf8;" horiz-adv-x="1028" d="M76 520q0 242 119 388.5t317 146.5q61 0 110 -12.5t113 -43.5l45 76l84 -2l-73 -125q161 -131 161 -432q0 -246 -119.5 -392.5t-320.5 -146.5q-66 0 -109 13t-98 49l-47 -86l-78 4l64 125q-81 57 -124.5 170.5t-43.5 267.5zM248 516q0 -117 12.5 -170t58.5 -137l355 674 q-111 80 -160 80q-78 0 -148.5 -70t-95.5 -172q-22 -78 -22 -205zM365 145q79 -73 157 -73q43 0 92 27t80 67q46 59 66 133t20 184q0 179 -41 287q-4 13 -24 49z" />
<glyph unicode="&#xf9;" horiz-adv-x="1116" d="M143 1044h191l-4 -40q-13 -230 -13 -261v-428q0 -113 55.5 -164t176.5 -51q76 0 128 31t116 115v487q0 57 -5 185q0 31 -6 126h191q-21 -188 -21 -311v-428q0 -86 4 -192q1 -20 11 -109h-174v135q-67 -76 -137.5 -110.5t-157.5 -34.5q-65 0 -131 21t-113 57 q-96 71 -96 245v420q0 137 -15 307zM311 1452h158q35 -81 74 -149q38 -67 104 -162h-96z" />
<glyph unicode="&#xfa;" horiz-adv-x="1116" d="M143 1044h191l-4 -40q-13 -230 -13 -261v-428q0 -113 55.5 -164t176.5 -51q76 0 128 31t116 115v487q0 57 -5 185q0 31 -6 126h191q-21 -188 -21 -311v-428q0 -86 4 -192q1 -20 11 -109h-174v135q-67 -76 -137.5 -110.5t-157.5 -34.5q-65 0 -131 21t-113 57 q-96 71 -96 245v420q0 137 -15 307zM487 1139q48 77 84 159q20 39 58 152h157l-213 -311h-86z" />
<glyph unicode="&#xfb;" horiz-adv-x="1116" d="M143 1044h191l-4 -40q-13 -230 -13 -261v-428q0 -113 55.5 -164t176.5 -51q76 0 128 31t116 115v487q0 57 -5 185q0 31 -6 126h191q-21 -188 -21 -311v-428q0 -86 4 -192q1 -20 11 -109h-174v135q-67 -76 -137.5 -110.5t-157.5 -34.5q-65 0 -131 21t-113 57 q-96 71 -96 245v420q0 137 -15 307zM301 1141q81 85 127 162q36 55 82 149h94q51 -105 82 -149q46 -72 127 -162h-129l-127 202l-127 -202h-129z" />
<glyph unicode="&#xfc;" horiz-adv-x="1126" d="M143 1044h191l-4 -40q-13 -230 -13 -261v-428q0 -113 55.5 -164t176.5 -51q76 0 128 31t116 115v487q0 57 -5 185q0 31 -6 126h191q-21 -188 -21 -311v-428q0 -86 4 -192q1 -20 11 -109h-174v135q-67 -76 -137.5 -110.5t-157.5 -34.5q-65 0 -131 21t-113 57 q-96 71 -96 245v420q0 137 -15 307zM270 1305q0 98 107 98q42 0 67 -26.5t25 -71.5q0 -49 -25.5 -75t-72.5 -26q-101 0 -101 101zM635 1305q0 98 108 98q43 0 69 -27t26 -71q0 -49 -26.5 -75t-74.5 -26q-102 0 -102 101z" />
<glyph unicode="&#xff;" horiz-adv-x="827" d="M-27 -276q29 -25 53 -35.5t58 -10.5q88 0 166 84q90 99 90 207q0 48 -41 140q-77 178 -154 411q-74 228 -147 520h172q64 -269 121 -446q51 -169 164 -453q104 290 149 453q45 147 111 446h112q-30 -148 -51 -223q-111 -462 -272 -811q-51 -113 -114 -209.5t-120 -148.5 q-79 -66 -188 -66q-44 0 -109 12v130zM131 1239q0 100 107 100q43 0 67.5 -27t24.5 -73q0 -47 -26 -72.5t-75 -25.5q-47 0 -72.5 25.5t-25.5 72.5zM496 1239q0 100 108 100q43 0 67.5 -27t24.5 -73q0 -47 -25.5 -72.5t-72.5 -25.5q-102 0 -102 98z" />
<glyph unicode="&#x152;" horiz-adv-x="1792" d="M76 731q0 227 74.5 400.5t210 267.5t311.5 94q38 0 94 -6l80 -6q57 -4 110 -4h754v-113l-49 2q-163 10 -285 10h-284v-565h217q102 0 280 16v-129q-187 15 -280 15h-217v-607h348q109 0 250 9l47 4v-119h-867q-21 0 -79 -4l-74 -4q-70 -4 -94 -4q-251 0 -399 201 t-148 542zM270 713q0 -312 99 -474.5t288 -162.5q117 0 205 69q30 27 58 66v1055q-104 133 -248 133q-198 0 -300 -173.5t-102 -512.5z" />
<glyph unicode="&#x153;" horiz-adv-x="1689" d="M76 530q0 235 124.5 385t321.5 150q114 0 195.5 -49.5t156.5 -163.5q150 211 365 211q149 0 243 -96.5t126 -282.5l-643 -256q37 -171 124.5 -262.5t213.5 -91.5q82 0 144 29t130 98l51 -66q-153 -153 -356 -153q-133 0 -227.5 58t-163.5 181q-66 -122 -155.5 -179.5 t-211.5 -57.5q-200 0 -319 148.5t-119 397.5zM244 530q0 -209 75 -330.5t203 -121.5q126 0 197.5 121t71.5 336q0 204 -73.5 323t-199.5 119t-200 -121.5t-74 -325.5zM948 586q0 -41 4 -82l381 153q51 20 74 43t23 54q0 27 -17 67.5t-43 73.5q-26 36 -65.5 57t-81.5 21 q-119 0 -197 -110t-78 -277z" />
<glyph unicode="&#x178;" horiz-adv-x="964" d="M-117 1477h234q4 -7 9 -17.5t7 -13.5q5 -10 26 -48.5t36 -66.5q7 -11 15.5 -27t10.5 -20l76 -127l225 -377l234 377q58 97 73 127q13 22 31 54.5t41 74.5t35 64h145l-24 -39q-71 -102 -105 -154q-31 -45 -80 -127l-301 -489v-349q0 -153 11 -319h-201q10 245 10 319v340 l-299 498q-21 41 -80 127q-78 114 -102 156zM199 1747q0 100 106 100q43 0 67.5 -27t24.5 -73q0 -98 -100 -98q-47 0 -72.5 25.5t-25.5 72.5zM563 1747q0 100 109 100q43 0 67.5 -27t24.5 -73q0 -47 -25.5 -72.5t-72.5 -25.5q-103 0 -103 98z" />
<glyph unicode="&#x2c6;" horiz-adv-x="528" d="M8 1141q81 85 127 162q36 55 82 149h94q51 -105 82 -149q46 -72 127 -162h-129l-127 202l-127 -202h-129z" />
<glyph unicode="&#x2dc;" horiz-adv-x="548" d="M-12 1262q52 28 139 28q44 0 149 -14q91 -16 152 -16q62 0 121 26l6 -112q-63 -31 -129 -31q-40 0 -168 20q-102 13 -139 13q-63 0 -125 -25z" />
<glyph unicode="&#x2000;" horiz-adv-x="980" />
<glyph unicode="&#x2001;" horiz-adv-x="1960" />
<glyph unicode="&#x2002;" horiz-adv-x="980" />
<glyph unicode="&#x2003;" horiz-adv-x="1960" />
<glyph unicode="&#x2004;" horiz-adv-x="653" />
<glyph unicode="&#x2005;" horiz-adv-x="490" />
<glyph unicode="&#x2006;" horiz-adv-x="326" />
<glyph unicode="&#x2007;" horiz-adv-x="326" />
<glyph unicode="&#x2008;" horiz-adv-x="245" />
<glyph unicode="&#x2009;" horiz-adv-x="392" />
<glyph unicode="&#x200a;" horiz-adv-x="108" />
<glyph unicode="&#x2010;" horiz-adv-x="583" d="M51 479v148h486v-148h-486z" />
<glyph unicode="&#x2011;" horiz-adv-x="583" d="M51 479v148h486v-148h-486z" />
<glyph unicode="&#x2012;" horiz-adv-x="583" d="M51 479v148h486v-148h-486z" />
<glyph unicode="&#x2013;" d="M80 707v135h887v-135h-887z" />
<glyph unicode="&#x2014;" horiz-adv-x="2039" d="M61 684v107h1917v-107h-1917z" />
<glyph unicode="&#x2018;" horiz-adv-x="303" d="M61 1020q27 143 66 254q38 98 96 203h84q-43 -104 -57 -166.5t-14 -147.5q0 -61 14 -143h-189z" />
<glyph unicode="&#x2019;" horiz-adv-x="303" d="M-4 1020q45 106 60.5 168.5t15.5 144.5q0 28 -17 144h187q-29 -150 -66 -248q-30 -88 -94 -209h-86z" />
<glyph unicode="&#x201a;" horiz-adv-x="303" d="M-4 -262q45 105 60.5 167t15.5 144q0 23 -17 139h187q-30 -152 -66 -245q-31 -88 -94 -205h-86z" />
<glyph unicode="&#x201c;" horiz-adv-x="544" d="M61 1020q27 143 66 254q38 98 96 203h84q-43 -104 -57 -166.5t-14 -147.5q0 -61 14 -143h-189zM303 1020q31 168 64 254q38 98 96 203h86q-45 -107 -60.5 -169t-15.5 -145q0 -31 16 -143h-186z" />
<glyph unicode="&#x201d;" horiz-adv-x="544" d="M-4 1020q45 106 60.5 168.5t15.5 144.5q0 28 -17 144h187q-29 -150 -66 -248q-30 -88 -94 -209h-86zM238 1020q43 104 57 166.5t14 146.5q0 65 -14 144h188q-33 -159 -67 -248q-30 -88 -94 -209h-84z" />
<glyph unicode="&#x201e;" horiz-adv-x="544" d="M-4 -262q45 105 60.5 167t15.5 144q0 23 -17 139h187q-30 -152 -66 -245q-31 -88 -94 -205h-86zM238 -262q43 102 57 164.5t14 146.5q0 60 -14 139h188q-34 -161 -67 -245q-31 -88 -94 -205h-84z" />
<glyph unicode="&#x2022;" horiz-adv-x="346" d="M61 547q0 54 29.5 79t91.5 25q47 0 74 -27.5t27 -76.5q0 -103 -111 -103t-111 103z" />
<glyph unicode="&#x2026;" horiz-adv-x="2039" d="M258 82q0 41 29 70q29 28 69.5 28t69.5 -28q29 -29 29 -70.5t-29 -69.5q-29 -29 -69.5 -29t-69.5 29t-29 70zM940 82q0 41 29 70q29 28 69.5 28t69.5 -28q29 -29 29 -70.5t-29 -69.5q-29 -29 -69.5 -29t-69.5 29t-29 70zM1608 82q0 40 28.5 69t69.5 29t69.5 -29t28.5 -69 q0 -41 -28.5 -69.5t-69.5 -28.5t-69.5 28.5t-28.5 69.5z" />
<glyph unicode="&#x202f;" horiz-adv-x="392" />
<glyph unicode="&#x2039;" horiz-adv-x="466" d="M61 508v61q53 72 95 140q67 108 123 211h127l-199 -377l194 -379h-127q-67 126 -118 207q-24 38 -95 137z" />
<glyph unicode="&#x203a;" horiz-adv-x="464" d="M61 920h127q60 -110 119 -207q32 -54 96 -144v-61q-61 -82 -92 -133q-58 -93 -123 -211h-125l199 379z" />
<glyph unicode="&#x205f;" horiz-adv-x="490" />
<glyph unicode="&#x2122;" horiz-adv-x="1634" d="M109 1382v93h440v-93l-170 2v-647h-103v647zM524 737l148 762h33l229 -504l12 -30l4 -11q13 -33 13 -69q3 40 14 71l6 15l10 24l230 504h32l148 -762h-105l-77 445l-4 26l-3 9q-3 28 3 65l-9 -29l-10 -34l-8 -25l-4 -8l-211 -469h-23l-211 469l-6 12l-6 21q-11 32 -18 63 q5 -33 2 -65l-2 -9l-4 -26l-78 -445h-105z" />
<glyph unicode="&#xe000;" horiz-adv-x="1044" d="M0 0v1044h1044v-1044h-1044z" />
<glyph unicode="&#xfb01;" d="M158 1022l96 98l266 -266l273 272l98 -98l-270 -270l264 -266l-97 -101l-266 268l-266 -266l-96 99l262 266z" />
<glyph unicode="&#xfb02;" horiz-adv-x="757" d="M43 0v94q113 -10 213 -10h57v1249q-125 -44 -192 -86q-36 -22 -78 -53v139l356 144h95v-1393q104 0 151 2q30 1 123 8v-94h-725z" />
</font>
</defs>
</svg>
